<svg width="246" height="98" viewBox="0 0 246 98" fill="none" xmlns="http://www.w3.org/2000/svg">
<path d="M168.576 44.9928C162.14 65.179 149.961 71.0703 149.961 71.0703C156.081 71.3694 165.118 61.0221 167.103 56.626C210.694 62.5323 221.009 41.6883 221.295 41.1051C205.672 47.3254 183.568 45.8601 168.576 44.9928ZM168.215 54.2186C169.313 52.1402 170.366 49.9422 171.373 47.3853C171.373 47.3853 194.905 50.8692 214.122 45.7554C206.935 53.6355 179.342 56.2672 168.215 54.2186ZM221.295 41.1051C221.295 41.1051 221.295 41.1051 221.28 41.1201L221.295 41.1051ZM168.606 58.8839C168.606 58.8839 166.591 63.7734 160.396 68.2443C163.223 67.5714 164.065 66.7789 168.847 66.3752C173.628 65.9715 187.177 68.02 197.807 58.9437C191.402 60.9474 174.741 62.3978 168.606 58.8839ZM166.591 63.9229L168.681 61.7997C168.441 61.994 183.838 64.3267 190.515 61.7997C185.011 65.5079 172.922 62.6819 166.591 63.9229ZM204.303 21.3526C188.154 21.6517 174.365 19.7676 168.381 22.4591C163.825 24.5076 163.81 28.5748 163.945 29.8457C167.869 67.2275 137.601 74.031 136.804 74.2104C151.449 74.2104 164.065 57.6279 167.599 43.662C177.493 41.9724 193.582 43.7218 210.183 41.2098C224.738 39.0117 238.422 30.9821 246 11.9922C233.354 19.633 217.325 21.1283 204.303 21.3526ZM214.664 36.3502C197.101 41.2696 180.169 37.0081 167.764 40.4173C167.764 40.4173 168.215 35.0044 168.215 31.1616C168.215 27.3038 172.365 25.3001 179.042 25.1655C187.146 24.9861 223.25 27.5281 237.655 18.9452C232.196 27.1842 223.866 33.7783 214.664 36.3502ZM77.4238 44.9928C83.8595 65.179 96.0392 71.0703 96.0392 71.0703C89.9193 71.3694 80.8823 61.0221 78.8974 56.626C35.3061 62.5323 24.991 41.6883 24.7053 41.1051C40.3284 47.3254 62.4323 45.8601 77.4238 44.9928ZM77.7847 54.2186C76.687 52.1402 75.6345 49.9422 74.627 47.3853C74.627 47.3853 51.0946 50.8692 31.8778 45.7554C39.0502 53.6355 66.6576 56.2672 77.7847 54.2186ZM24.7053 41.1051C24.7053 41.1051 24.7053 41.1051 24.7203 41.1201L24.7053 41.1051ZM77.3938 58.8839C77.3938 58.8839 79.4087 63.7734 85.6038 68.2443C82.7769 67.5714 81.9348 66.7789 77.1532 66.3752C72.3715 65.9715 58.8235 68.02 48.1925 58.9437C54.5982 60.9474 71.2588 62.3978 77.3938 58.8839ZM79.4087 63.9229L77.3186 61.7997C77.5592 61.994 62.1616 64.3267 55.4853 61.7997C60.9888 65.5079 73.0782 62.6819 79.4087 63.9229ZM41.6967 21.3526C57.8461 21.6517 71.6347 19.7676 77.6193 22.4591C82.1754 24.5076 82.1905 28.5748 82.0551 29.8457C78.1306 67.2275 108.399 74.031 109.196 74.2104C94.5506 74.2104 81.9348 57.6279 78.4012 43.662C68.5071 41.9724 52.4178 43.7218 35.8174 41.2098C21.2619 39.0117 7.57848 30.9821 0 11.9922C12.6458 19.633 28.6749 21.1283 41.6967 21.3526ZM31.3364 36.3502C48.8993 41.2696 65.8306 37.0081 78.2358 40.4173C78.2358 40.4173 77.7847 35.0044 77.7847 31.1616C77.7847 27.3038 73.6346 25.3001 66.9583 25.1655C58.8535 24.9861 22.7505 27.5281 8.34536 18.9452C13.8037 27.1842 22.134 33.7783 31.3364 36.3502ZM64.8381 97.716L71.2738 81.0587H73.6647L80.5214 97.716H77.9952L76.0405 92.677H69.0334L67.1989 97.716H64.8381ZM69.68 90.8827H75.3638L73.6196 86.2772C73.0933 84.8717 72.6873 83.7203 72.4317 82.8232C72.2211 83.8848 71.9204 84.9464 71.5295 86.0081L69.68 90.8827ZM82.3859 81.0587H93.2575V83.0175H84.6114V88.1463H88.6111C90.0847 88.1463 91.2576 88.2809 92.1297 88.565C93.0018 88.8491 93.6935 89.3724 94.2198 90.15C94.7461 90.9275 95.0017 91.8247 95.0017 92.8564C95.0017 93.6938 94.8213 94.4863 94.4303 95.2189C94.0544 95.9516 93.498 96.5497 92.7462 97.0133C91.9944 97.4768 90.7313 97.7011 88.9269 97.7011H82.3709V81.0587H82.3859ZM84.6114 95.847H89.0472C90.2501 95.847 91.1373 95.6077 91.7387 95.1143C92.3402 94.6358 92.641 93.9031 92.641 92.9312C92.641 92.2434 92.4755 91.6602 92.1297 91.1967C91.7839 90.7331 91.3177 90.4341 90.7012 90.2696C90.0847 90.1051 89.0472 90.0453 87.5886 90.0453H84.6264V95.847H84.6114ZM97.7083 97.716V81.0587H99.9187V87.8921H108.625V81.0587H110.835V97.716H108.625V89.8659H99.9187V97.716H97.7083ZM119.196 97.716L125.631 81.0587H128.022L134.879 97.716H132.353L130.398 92.677H123.391L121.556 97.716H119.196ZM124.038 90.8827H129.721L127.977 86.2772C127.451 84.8717 127.045 83.7203 126.789 82.8232C126.579 83.8848 126.278 84.9464 125.887 86.0081L124.038 90.8827ZM147.495 88.1463C147.405 86.4866 146.893 85.1558 145.976 84.1839C145.059 83.2119 143.766 82.7185 142.142 82.7185C139.721 82.7185 138.202 83.8848 137.571 86.2025L135.405 85.6343C135.811 84.1091 136.608 82.9278 137.781 82.0606C138.954 81.2083 140.397 80.7746 142.142 80.7746C143.781 80.7746 145.209 81.1784 146.397 81.9858C147.585 82.7933 148.472 83.81 149.044 85.0661C149.615 86.3221 149.901 87.6977 149.901 89.208C149.991 91.6901 149.374 93.7685 148.096 95.4582C146.803 97.1478 144.833 98.0002 142.202 98.0002C138.503 98.0002 136.172 96.161 135.21 92.4826L137.345 91.9294C138.022 94.7405 139.691 96.161 142.367 96.161C143.871 96.161 145.104 95.6227 146.051 94.5461C146.999 93.4695 147.525 91.9892 147.615 90.1201H141.39V88.1613H147.495V88.1463ZM152.953 97.716V81.0587H159.268C160.381 81.0587 161.223 81.1186 161.81 81.2232C162.637 81.3578 163.328 81.6269 163.885 82.0008C164.441 82.3895 164.892 82.9129 165.223 83.6156C165.569 84.3035 165.734 85.0661 165.734 85.8885C165.734 87.309 165.283 88.5052 164.381 89.4921C163.479 90.4789 161.84 90.9574 159.464 90.9574H155.163V97.731H152.953V97.716ZM155.163 88.9837H159.494C160.922 88.9837 161.945 88.7145 162.546 88.1912C163.148 87.6678 163.449 86.9202 163.449 85.9483C163.449 85.2455 163.268 84.6474 162.922 84.1539C162.561 83.6605 162.095 83.3316 161.524 83.1671C161.148 83.0624 160.456 83.0175 159.449 83.0175H155.163V88.9837ZM167.373 89.6117C167.373 86.8454 168.125 84.6773 169.614 83.1222C171.102 81.5671 173.027 80.7746 175.388 80.7746C176.937 80.7746 178.335 81.1485 179.568 81.8811C180.816 82.6138 181.748 83.6456 182.41 84.9464C183.056 86.2623 183.387 87.7575 183.387 89.4173C183.387 91.107 183.041 92.6172 182.365 93.948C181.673 95.2788 180.711 96.2955 179.448 96.9684C178.185 97.6562 176.831 98.0002 175.388 98.0002C173.809 98.0002 172.395 97.6263 171.162 96.8637C169.914 96.1012 168.982 95.0694 168.336 93.7685C167.689 92.4527 167.373 91.0621 167.373 89.6117ZM169.644 89.6416C169.644 91.6453 170.185 93.2302 171.268 94.3816C172.35 95.533 173.719 96.1161 175.358 96.1161C177.027 96.1161 178.395 95.533 179.478 94.3666C180.56 93.2003 181.102 91.5406 181.102 89.4024C181.102 88.0416 180.876 86.8604 180.41 85.8586C179.944 84.8418 179.282 84.0642 178.395 83.511C177.508 82.9577 176.516 82.6736 175.403 82.6736C173.839 82.6736 172.486 83.2119 171.358 84.2885C170.215 85.3502 169.644 87.1295 169.644 89.6416ZM153.103 42.8546L160.787 38.2492L149.239 35.2736C148.968 34.4063 148.201 33.7634 147.299 33.7634C147.194 33.7634 147.089 33.7783 146.983 33.7933L144.818 30.4289L148.247 28.6196C148.247 28.6196 151.675 26.9449 151.013 23.4011L153.524 31.9391C153.825 33.0008 155.825 32.5372 155.374 31.2962L151.149 22.19C151.494 21.9358 151.63 21.4573 151.464 20.9638C151.269 20.4106 150.743 20.0517 150.231 20.0517L150.246 20.0368L147.104 10.4072C146.593 9.18111 144.803 10.2128 145.314 11.1848L149.825 20.1564C149.735 20.2013 149.645 20.2611 149.57 20.3358C147.074 17.106 144.277 19.3789 144.277 19.3789L136.954 23.5806C135.977 22.7432 133.872 21.2479 132.082 22.3843C128.955 24.3432 124.263 27.1244 121.06 29.0084L105.497 26.2421L97.4076 32.283L112.219 38.0847L108.264 40.8659C108.264 40.8659 103.362 45.6657 99.5428 40.6416C95.7235 35.6175 92.7312 36.5296 90.7764 45.0227H101.618L101.843 45.7106H90.4757L86.2804 48.3871C86.2804 48.3871 88.5059 49.6431 91.3628 49.5983C91.6335 51.1832 92.7161 53.7252 95.4077 52.9925C98.0993 52.2598 108.309 48.1778 108.309 48.1778C108.309 48.1778 120.699 45.875 122.94 42.4658H123.481C123.286 42.7798 123.165 43.1686 123.165 43.5873C123.165 44.7237 124.038 45.6358 125.12 45.6358C126.203 45.6358 127.075 44.7237 127.075 43.5873C127.075 43.1686 126.955 42.7948 126.759 42.4658H129.285V43.7518H137.525L138.623 42.1817L139.51 42.2266L140.894 44.0807C140.052 44.3499 139.435 45.1573 139.435 46.1442C139.435 47.3404 140.352 48.2974 141.48 48.2974C142.608 48.2974 143.525 47.3255 143.525 46.1442C143.525 45.1573 142.894 44.3499 142.051 44.0807L140.593 42.2864L153.103 42.8546ZM127.15 26.0627C127.451 25.8833 127.752 25.7038 128.052 25.5244C128.263 25.5244 128.924 25.9879 129.451 26.5113C129.255 27.1094 129.33 27.7374 129.601 28.2907L127.947 29.3074V29.2626C127.015 29.128 127.06 26.9748 127.15 26.0627ZM129.736 25.958C129.421 25.659 129.045 25.3599 128.684 25.1506C129.706 24.5375 130.624 23.9843 131.33 23.5357C131.225 23.9693 131.21 24.5824 131.315 25.3749C130.654 25.2553 130.097 25.4945 129.736 25.958ZM146.187 34.1222C146.066 34.197 145.946 34.2867 145.856 34.3914L140.127 32.911L144.081 30.8177L146.187 34.1222ZM136.398 23.8796L132.503 26.1225C132.338 25.9281 132.157 25.7786 131.962 25.644C131.285 21.6218 134.112 22.0105 136.398 23.8796ZM121.947 29.1579C123.211 28.4103 124.865 27.4234 126.519 26.4365C126.443 27.7225 126.564 29.6215 127.842 29.8308L130.233 30.5336C130.293 30.5485 130.338 30.5934 130.368 30.6382C130.398 30.6831 130.398 30.7579 130.383 30.8027L121.947 29.1579Z" fill="#7ABCF0"/>
<path d="M149.51 36.3052H148.607C148.607 22.4291 137.255 11.1398 123.301 11.1398C109.347 11.1398 97.9789 22.4291 97.9789 36.3052H97.0767C97.0767 21.9356 108.835 10.2426 123.286 10.2426C137.736 10.2426 149.51 21.9356 149.51 36.3052ZM123.286 13.6518C110.73 13.6518 100.505 23.8197 100.505 36.3052H101.407C101.407 24.3131 111.226 14.549 123.286 14.549C135.345 14.549 145.164 24.3131 145.164 36.3052H146.066C146.066 23.8197 135.856 13.6518 123.286 13.6518ZM123.286 3.40922C105.046 3.40922 90.205 18.1675 90.205 36.3052H91.1072C91.1072 18.661 105.542 4.30638 123.286 4.30638C141.029 4.30638 155.464 18.661 155.464 36.3052H156.366C156.366 18.1675 141.525 3.40922 123.286 3.40922ZM123.286 6.83338C106.941 6.83338 93.6484 20.0516 93.6484 36.3052H94.5506C94.5506 20.545 107.452 7.71559 123.301 7.71559C139.149 7.71559 152.051 20.545 152.051 36.3052H152.953C152.938 20.0516 139.631 6.83338 123.286 6.83338ZM123.286 0.897162C142.924 0.897162 158.893 16.7769 158.893 36.3052H159.795C159.795 16.2835 143.42 0 123.286 0C103.167 0 86.7766 16.2835 86.7766 36.3052H87.6788C87.6788 16.7769 103.663 0.897162 123.286 0.897162Z" fill="url(#paint0_radial)"/>
<path d="M97.0767 36.3047H97.9789C97.9789 50.1808 109.332 61.4701 123.286 61.4701C137.24 61.4701 148.592 50.1808 148.592 36.3047H149.495C149.495 50.6742 137.736 62.3672 123.286 62.3672C108.835 62.3672 97.0767 50.6742 97.0767 36.3047ZM123.286 58.958C135.841 58.958 146.066 48.7902 146.066 36.3047H145.164C145.164 48.2968 135.345 58.0609 123.286 58.0609C111.226 58.0609 101.407 48.2968 101.407 36.3047H100.505C100.505 48.7902 110.73 58.958 123.286 58.958ZM123.286 69.2006C141.525 69.2006 156.366 54.4423 156.366 36.3047H155.464C155.464 53.9489 141.029 68.3035 123.286 68.3035C105.542 68.3035 91.1072 53.9489 91.1072 36.3047H90.22C90.22 54.4423 105.046 69.2006 123.286 69.2006ZM123.286 65.7914C139.631 65.7914 152.923 52.5732 152.923 36.3196H152.021C152.021 52.0798 139.119 64.9092 123.271 64.9092C107.422 64.9092 94.5205 52.0798 94.5205 36.3196H93.6183C93.6484 52.5583 106.941 65.7914 123.286 65.7914ZM123.286 71.7127C103.648 71.7127 87.6788 55.8329 87.6788 36.3047H86.7766C86.7766 56.3264 103.152 72.6098 123.286 72.6098C143.42 72.6098 159.795 56.3264 159.795 36.3047H158.893C158.893 55.8329 142.924 71.7127 123.286 71.7127Z" fill="url(#paint1_radial)"/>
<defs>
<radialGradient id="paint0_radial" cx="0" cy="0" r="1" gradientUnits="userSpaceOnUse" gradientTransform="translate(115.936 -3.20362) scale(27.7135 27.5587)">
<stop stop-color="#7ABCF0"/>
<stop offset="1" stop-color="white" stop-opacity="0"/>
</radialGradient>
<radialGradient id="paint1_radial" cx="0" cy="0" r="1" gradientUnits="userSpaceOnUse" gradientTransform="translate(130.352 69.4756) scale(27.7135 27.5587)">
<stop stop-color="#7ABCF0"/>
<stop offset="1" stop-color="white" stop-opacity="0"/>
</radialGradient>
</defs>
</svg>
