<svg width="246" height="98" viewBox="0 0 246 98" fill="none" xmlns="http://www.w3.org/2000/svg">
<path d="M168.576 44.9927C162.14 65.1788 149.961 71.0702 149.961 71.0702C156.081 71.3692 165.118 61.022 167.103 56.6259C210.694 62.5322 221.009 41.6881 221.295 41.105C205.672 47.3253 183.568 45.8599 168.576 44.9927ZM168.215 54.2185C169.313 52.1401 170.366 49.942 171.373 47.3851C171.373 47.3851 194.905 50.8691 214.122 45.7553C206.935 53.6353 179.342 56.267 168.215 54.2185ZM221.295 41.105C221.295 41.105 221.295 41.105 221.28 41.1199L221.295 41.105ZM168.606 58.8837C168.606 58.8837 166.591 63.7733 160.396 68.2441C163.223 67.5713 164.065 66.7788 168.847 66.375C173.628 65.9713 187.177 68.0198 197.807 58.9435C191.402 60.9472 174.741 62.3976 168.606 58.8837ZM166.591 63.9228L168.681 61.7995C168.441 61.9939 183.838 64.3265 190.515 61.7995C185.011 65.5078 172.922 62.6817 166.591 63.9228ZM204.303 21.3525C188.154 21.6515 174.365 19.7675 168.381 22.459C163.825 24.5075 163.81 28.5746 163.945 29.8456C167.869 67.2273 137.601 74.0308 136.804 74.2103C151.449 74.2103 164.065 57.6277 167.599 43.6619C177.493 41.9722 193.582 43.7217 210.183 41.2096C224.738 39.0116 238.422 30.982 246 11.9921C233.354 19.6329 217.325 21.1282 204.303 21.3525ZM214.664 36.35C197.101 41.2695 180.169 37.0079 167.764 40.4171C167.764 40.4171 168.215 35.0043 168.215 31.1614C168.215 27.3036 172.365 25.3 179.042 25.1654C187.146 24.986 223.25 27.5279 237.655 18.9451C232.196 27.184 223.866 33.7781 214.664 36.35ZM77.4238 44.9927C83.8595 65.1788 96.0392 71.0702 96.0392 71.0702C89.9193 71.3692 80.8823 61.022 78.8974 56.6259C35.3061 62.5322 24.991 41.6881 24.7053 41.105C40.3284 47.3253 62.4323 45.8599 77.4238 44.9927ZM77.7847 54.2185C76.687 52.1401 75.6345 49.942 74.627 47.3851C74.627 47.3851 51.0946 50.8691 31.8778 45.7553C39.0502 53.6353 66.6576 56.267 77.7847 54.2185ZM24.7053 41.105C24.7053 41.105 24.7053 41.105 24.7203 41.1199L24.7053 41.105ZM77.3938 58.8837C77.3938 58.8837 79.4087 63.7733 85.6038 68.2441C82.7769 67.5713 81.9348 66.7788 77.1532 66.375C72.3715 65.9713 58.8235 68.0198 48.1925 58.9435C54.5982 60.9472 71.2588 62.3976 77.3938 58.8837ZM79.4087 63.9228L77.3186 61.7995C77.5592 61.9939 62.1616 64.3265 55.4853 61.7995C60.9888 65.5078 73.0782 62.6817 79.4087 63.9228ZM41.6967 21.3525C57.8461 21.6515 71.6347 19.7675 77.6193 22.459C82.1754 24.5075 82.1905 28.5746 82.0551 29.8456C78.1306 67.2273 108.399 74.0308 109.196 74.2103C94.5506 74.2103 81.9348 57.6277 78.4012 43.6619C68.5071 41.9722 52.4178 43.7217 35.8174 41.2096C21.2619 39.0116 7.57848 30.982 0 11.9921C12.6458 19.6329 28.6749 21.1282 41.6967 21.3525ZM31.3364 36.35C48.8993 41.2695 65.8306 37.0079 78.2358 40.4171C78.2358 40.4171 77.7847 35.0043 77.7847 31.1614C77.7847 27.3036 73.6346 25.3 66.9583 25.1654C58.8535 24.986 22.7505 27.5279 8.34536 18.9451C13.8037 27.184 22.134 33.7781 31.3364 36.35ZM64.8381 97.7159L71.2738 81.0586H73.6647L80.5214 97.7159H77.9952L76.0405 92.6768H69.0334L67.1989 97.7159H64.8381ZM69.68 90.8825H75.3638L73.6196 86.2771C73.0933 84.8715 72.6873 83.7202 72.4317 82.823C72.2211 83.8846 71.9204 84.9463 71.5295 86.0079L69.68 90.8825ZM82.3859 81.0586H93.2575V83.0174H84.6114V88.1462H88.6111C90.0847 88.1462 91.2576 88.2807 92.1297 88.5648C93.0018 88.8489 93.6935 89.3723 94.2198 90.1498C94.7461 90.9274 95.0017 91.8245 95.0017 92.8563C95.0017 93.6936 94.8213 94.4861 94.4303 95.2188C94.0544 95.9515 93.498 96.5496 92.7462 97.0131C91.9944 97.4766 90.7313 97.7009 88.9269 97.7009H82.3709V81.0586H82.3859ZM84.6114 95.8468H89.0472C90.2501 95.8468 91.1373 95.6076 91.7387 95.1141C92.3402 94.6356 92.641 93.903 92.641 92.931C92.641 92.2432 92.4755 91.6601 92.1297 91.1965C91.7839 90.733 91.3177 90.4339 90.7012 90.2694C90.0847 90.105 89.0472 90.0452 87.5886 90.0452H84.6264V95.8468H84.6114ZM97.7083 97.7159V81.0586H99.9187V87.892H108.625V81.0586H110.835V97.7159H108.625V89.8657H99.9187V97.7159H97.7083ZM119.196 97.7159L125.631 81.0586H128.022L134.879 97.7159H132.353L130.398 92.6768H123.391L121.556 97.7159H119.196ZM124.038 90.8825H129.721L127.977 86.2771C127.451 84.8715 127.045 83.7202 126.789 82.823C126.579 83.8846 126.278 84.9463 125.887 86.0079L124.038 90.8825ZM147.495 88.1462C147.405 86.4864 146.893 85.1556 145.976 84.1837C145.059 83.2118 143.766 82.7183 142.142 82.7183C139.721 82.7183 138.202 83.8847 137.571 86.2023L135.405 85.6341C135.811 84.1089 136.608 82.9277 137.781 82.0604C138.954 81.2081 140.397 80.7745 142.142 80.7745C143.781 80.7745 145.209 81.1782 146.397 81.9857C147.585 82.7931 148.472 83.8099 149.044 85.0659C149.615 86.3219 149.901 87.6976 149.901 89.2078C149.991 91.69 149.374 93.7684 148.096 95.458C146.803 97.1477 144.833 98 142.202 98C138.503 98 136.172 96.1608 135.21 92.4824L137.345 91.9292C138.022 94.7403 139.691 96.1608 142.367 96.1608C143.871 96.1608 145.104 95.6225 146.051 94.5459C146.999 93.4693 147.525 91.989 147.615 90.1199H141.39V88.1611H147.495V88.1462ZM152.953 97.7159V81.0586H159.268C160.381 81.0586 161.223 81.1184 161.81 81.2231C162.637 81.3576 163.328 81.6268 163.885 82.0006C164.441 82.3894 164.892 82.9127 165.223 83.6155C165.569 84.3033 165.734 85.0659 165.734 85.8883C165.734 87.3088 165.283 88.505 164.381 89.4919C163.479 90.4788 161.84 90.9573 159.464 90.9573H155.163V97.7309H152.953V97.7159ZM155.163 88.9835H159.494C160.922 88.9835 161.945 88.7144 162.546 88.191C163.148 87.6677 163.449 86.92 163.449 85.9481C163.449 85.2453 163.268 84.6472 162.922 84.1538C162.561 83.6604 162.095 83.3314 161.524 83.1669C161.148 83.0622 160.456 83.0174 159.449 83.0174H155.163V88.9835ZM167.373 89.6115C167.373 86.8453 168.125 84.6771 169.614 83.1221C171.102 81.567 173.027 80.7745 175.388 80.7745C176.937 80.7745 178.335 81.1483 179.568 81.881C180.816 82.6137 181.748 83.6454 182.41 84.9463C183.056 86.2621 183.387 87.7574 183.387 89.4171C183.387 91.1068 183.041 92.617 182.365 93.9478C181.673 95.2786 180.711 96.2954 179.448 96.9683C178.185 97.6561 176.831 98 175.388 98C173.809 98 172.395 97.6262 171.162 96.8636C169.914 96.101 168.982 95.0693 168.336 93.7684C167.689 92.4525 167.373 91.0619 167.373 89.6115ZM169.644 89.6414C169.644 91.6451 170.185 93.2301 171.268 94.3814C172.35 95.5328 173.719 96.116 175.358 96.116C177.027 96.116 178.395 95.5328 179.478 94.3665C180.56 93.2002 181.102 91.5404 181.102 89.4022C181.102 88.0415 180.876 86.8602 180.41 85.8584C179.944 84.8416 179.282 84.0641 178.395 83.5108C177.508 82.9576 176.516 82.6735 175.403 82.6735C173.839 82.6735 172.486 83.2118 171.358 84.2884C170.215 85.35 169.644 87.1294 169.644 89.6414ZM153.103 42.8544L160.787 38.249L149.239 35.2734C148.968 34.4062 148.201 33.7632 147.299 33.7632C147.194 33.7632 147.089 33.7782 146.983 33.7931L144.818 30.4287L148.247 28.6195C148.247 28.6195 151.675 26.9448 151.013 23.401L153.524 31.939C153.825 33.0006 155.825 32.5371 155.374 31.296L151.149 22.1898C151.494 21.9356 151.63 21.4571 151.464 20.9637C151.269 20.4104 150.743 20.0516 150.231 20.0516L150.246 20.0366L147.104 10.4071C146.593 9.18096 144.803 10.2127 145.314 11.1846L149.825 20.1562C149.735 20.2011 149.645 20.2609 149.57 20.3357C147.074 17.1059 144.277 19.3787 144.277 19.3787L136.954 23.5804C135.977 22.7431 133.872 21.2478 132.082 22.3842C128.955 24.343 124.263 27.1242 121.06 29.0082L105.497 26.242L97.4076 32.2829L112.219 38.0845L108.264 40.8657C108.264 40.8657 103.362 45.6655 99.5428 40.6414C95.7235 35.6173 92.7312 36.5294 90.7764 45.0226H101.618L101.843 45.7104H90.4757L86.2804 48.3869C86.2804 48.3869 88.5059 49.643 91.3628 49.5981C91.6335 51.1831 92.7161 53.725 95.4077 52.9924C98.0993 52.2597 108.309 48.1776 108.309 48.1776C108.309 48.1776 120.699 45.8749 122.94 42.4657H123.481C123.286 42.7797 123.165 43.1684 123.165 43.5871C123.165 44.7235 124.038 45.6356 125.12 45.6356C126.203 45.6356 127.075 44.7235 127.075 43.5871C127.075 43.1684 126.955 42.7946 126.759 42.4657H129.285V43.7516H137.525L138.623 42.1816L139.51 42.2264L140.894 44.0806C140.052 44.3497 139.435 45.1572 139.435 46.144C139.435 47.3402 140.352 48.2972 141.48 48.2972C142.608 48.2972 143.525 47.3253 143.525 46.144C143.525 45.1572 142.894 44.3497 142.051 44.0806L140.593 42.2862L153.103 42.8544ZM127.15 26.0626C127.451 25.8831 127.752 25.7037 128.052 25.5243C128.263 25.5243 128.924 25.9878 129.451 26.5111C129.255 27.1092 129.33 27.7373 129.601 28.2905L127.947 29.3073V29.2624C127.015 29.1279 127.06 26.9747 127.15 26.0626ZM129.736 25.9579C129.421 25.6588 129.045 25.3598 128.684 25.1504C129.706 24.5374 130.624 23.9841 131.33 23.5356C131.225 23.9692 131.21 24.5822 131.315 25.3747C130.654 25.2551 130.097 25.4944 129.736 25.9579ZM146.187 34.1221C146.066 34.1968 145.946 34.2865 145.856 34.3912L140.127 32.9109L144.081 30.8175L146.187 34.1221ZM136.398 23.8795L132.503 26.1224C132.338 25.928 132.157 25.7785 131.962 25.6439C131.285 21.6216 134.112 22.0104 136.398 23.8795ZM121.947 29.1578C123.211 28.4101 124.865 27.4233 126.519 26.4364C126.443 27.7223 126.564 29.6213 127.842 29.8306L130.233 30.5334C130.293 30.5484 130.338 30.5932 130.368 30.6381C130.398 30.6829 130.398 30.7577 130.383 30.8026L121.947 29.1578Z" fill="white"/>
<path d="M149.51 36.3052H148.607C148.607 22.4291 137.255 11.1398 123.301 11.1398C109.347 11.1398 97.9789 22.4291 97.9789 36.3052H97.0767C97.0767 21.9356 108.835 10.2426 123.286 10.2426C137.736 10.2426 149.51 21.9356 149.51 36.3052ZM123.286 13.6518C110.73 13.6518 100.505 23.8197 100.505 36.3052H101.407C101.407 24.3131 111.226 14.549 123.286 14.549C135.345 14.549 145.164 24.3131 145.164 36.3052H146.066C146.066 23.8197 135.856 13.6518 123.286 13.6518ZM123.286 3.40922C105.046 3.40922 90.205 18.1675 90.205 36.3052H91.1072C91.1072 18.661 105.542 4.30638 123.286 4.30638C141.029 4.30638 155.464 18.661 155.464 36.3052H156.366C156.366 18.1675 141.525 3.40922 123.286 3.40922ZM123.286 6.83338C106.941 6.83338 93.6484 20.0516 93.6484 36.3052H94.5506C94.5506 20.545 107.452 7.71559 123.301 7.71559C139.149 7.71559 152.051 20.545 152.051 36.3052H152.953C152.938 20.0516 139.631 6.83338 123.286 6.83338ZM123.286 0.897162C142.924 0.897162 158.893 16.7769 158.893 36.3052H159.795C159.795 16.2835 143.42 0 123.286 0C103.167 0 86.7766 16.2835 86.7766 36.3052H87.6788C87.6788 16.7769 103.663 0.897162 123.286 0.897162Z" fill="url(#paint0_radial)"/>
<path d="M97.0767 36.3051H97.9789C97.9789 50.1812 109.332 61.4705 123.286 61.4705C137.24 61.4705 148.592 50.1812 148.592 36.3051H149.495C149.495 50.6747 137.736 62.3677 123.286 62.3677C108.835 62.3677 97.0767 50.6747 97.0767 36.3051ZM123.286 58.9585C135.841 58.9585 146.066 48.7906 146.066 36.3051H145.164C145.164 48.2972 135.345 58.0613 123.286 58.0613C111.226 58.0613 101.407 48.2972 101.407 36.3051H100.505C100.505 48.7906 110.73 58.9585 123.286 58.9585ZM123.286 69.2011C141.525 69.2011 156.366 54.4428 156.366 36.3051H155.464C155.464 53.9493 141.029 68.3039 123.286 68.3039C105.542 68.3039 91.1072 53.9493 91.1072 36.3051H90.22C90.22 54.4428 105.046 69.2011 123.286 69.2011ZM123.286 65.7919C139.631 65.7919 152.923 52.5737 152.923 36.3201H152.021C152.021 52.0802 139.119 64.9097 123.271 64.9097C107.422 64.9097 94.5205 52.0802 94.5205 36.3201H93.6183C93.6484 52.5587 106.941 65.7919 123.286 65.7919ZM123.286 71.7131C103.648 71.7131 87.6788 55.8334 87.6788 36.3051H86.7766C86.7766 56.3268 103.152 72.6103 123.286 72.6103C143.42 72.6103 159.795 56.3268 159.795 36.3051H158.893C158.893 55.8334 142.924 71.7131 123.286 71.7131Z" fill="url(#paint1_radial)"/>
<defs>
<radialGradient id="paint0_radial" cx="0" cy="0" r="1" gradientUnits="userSpaceOnUse" gradientTransform="translate(115.936 -3.20362) scale(27.7135 27.5587)">
<stop stop-color="white"/>
<stop offset="1" stop-color="white" stop-opacity="0"/>
</radialGradient>
<radialGradient id="paint1_radial" cx="0" cy="0" r="1" gradientUnits="userSpaceOnUse" gradientTransform="translate(130.352 69.4761) scale(27.7135 27.5587)">
<stop stop-color="white"/>
<stop offset="1" stop-color="white" stop-opacity="0"/>
</radialGradient>
</defs>
</svg>
