<svg width="843" height="376" viewBox="0 0 843 376" fill="none" xmlns="http://www.w3.org/2000/svg">
<path d="M440.614 204.093L435.468 114.402L506.939 110.302L510.01 163.831C510.22 167.498 513.347 170.283 517.017 170.072L559.125 167.656L560.097 184.617" stroke="#0365DF" stroke-miterlimit="10"/>
<path d="M414.568 115.6L540.228 108.391C544.102 108.169 547.425 105.475 548.438 101.737L554.517 79.3136C556.118 73.3453 551.44 67.5839 545.272 67.9378L412.322 75.5649C407.326 75.8515 403.53 80.1062 403.816 85.0975L405.078 107.1C405.311 112.043 409.623 115.884 414.568 115.6Z" stroke="#0365DF" stroke-miterlimit="10"/>
<path d="M665.707 217.496C662.466 217.171 660.567 217.944 656.6 221.902L631.577 246.639C629.4 248.808 628.22 249.642 624.957 249.829C615.17 250.39 594.621 248.81 583.309 245.984C574.8 243.866 574.17 243.596 575.105 234.038C576.936 215.128 588.441 182.991 603.512 182.688" stroke="#0365DF" stroke-miterlimit="10"/>
<path d="M782.396 247.388C709.804 251.553 641.316 308.523 485.184 323.05" stroke="#0365DF" stroke-miterlimit="10"/>
<path d="M282.683 270.18C282.683 270.18 486.621 232.215 489.821 263.917C487.099 295.807 282.683 270.18 282.683 270.18Z" stroke="#0365DF" stroke-miterlimit="10"/>
<path d="M18.2548 148.812C18.2548 148.812 99.9175 132.477 101.212 145.229C100.107 158.067 18.2548 148.812 18.2548 148.812Z" stroke="#0365DF" stroke-miterlimit="10"/>
<path d="M49.4466 151.366L65.2289 265.996C69.0017 293.425 91.3353 314.525 118.927 316.724C226.824 325.301 489.813 344.911 592.123 340.779C730.356 335.199 804.808 290.355 819.57 280.208C848.156 260.53 835.475 240.971 817.469 239.142L665.656 217.498L618.383 186.944C613.923 184.083 608.723 182.593 603.41 182.694C528.635 184.479 453.444 190.581 330.213 247.269L164.443 266.743L84.8359 94.2501L41.9127 96.7126L48.3878 143.608" stroke="#0365DF" stroke-miterlimit="10"/>
<path d="M164.446 266.795L66.9555 278.264" stroke="#0365DF" stroke-miterlimit="10"/>
<path d="M403.908 87.5965C403.908 87.5965 387.927 87.1847 381.453 97.3672C389.049 106.743 404.878 104.506 404.878 104.506" stroke="#0365DF" stroke-miterlimit="10"/>
<path d="M502.346 247.768L557.3 244.615C560.715 244.419 563.361 241.508 563.163 238.045L561.968 217.213C561.772 213.801 558.858 211.158 555.392 211.357L500.438 214.509C497.022 214.705 494.376 217.616 494.575 221.08L495.77 241.911C496.02 245.371 498.93 247.964 502.346 247.768Z" stroke="#0365DF" stroke-miterlimit="10"/>
<path d="M453.281 278.687L473.986 324C445.337 325.643 405.35 327.58 340.379 321.956C330.921 321.119 331.205 315.379 331.594 306.108L333.023 274.855" stroke="#0365DF" stroke-miterlimit="10"/>
<path d="M207.49 323.498L201.677 338.957C199.545 344.598 196.118 344.59 192.357 343.222" stroke="#0365DF" stroke-miterlimit="10"/>
<path d="M49.4465 151.366L65.2318 266.047" stroke="#0365DF" stroke-miterlimit="10"/>
<path d="M593.339 247.861C595.211 231.453 599.734 212.235 606.8 203.45" stroke="#7ABCF0" stroke-width="0.5" stroke-miterlimit="10"/>
<path d="M558.553 298.555C536.064 303.269 511.378 307.138 483.959 309.732" stroke="#7ABCF0" stroke-width="0.5" stroke-miterlimit="10"/>
<path d="M504.283 173.664C485.836 176.613 466.379 180.693 445.528 186.334" stroke="#7ABCF0" stroke-width="0.5" stroke-miterlimit="10"/>
<path d="M388.164 91.3098C390.779 78.947 389.526 42.8404 388.811 25.9164C388.788 25.509 389.399 25.4739 389.423 25.8813L397.398 88.2251" stroke="#7ABCF0" stroke-width="0.5" stroke-miterlimit="10"/>
<path d="M388.816 102.668C392.828 114.65 395.712 150.663 396.937 167.558C396.96 167.966 397.572 167.931 397.549 167.523L398.342 104.676" stroke="#7ABCF0" stroke-width="0.5" stroke-miterlimit="10"/>
<path d="M345.338 308.538C345.474 305.567 345.366 308.128 346.815 275.443" stroke="#7ABCF0" stroke-width="0.5" stroke-miterlimit="10"/>
<path d="M467.845 310.555C441.69 312.005 399.137 313.781 331.562 307.336" stroke="#7ABCF0" stroke-width="0.5" stroke-miterlimit="10"/>
<path d="M730.223 257.995L490.271 271.761" stroke="#7ABCF0" stroke-width="0.5" stroke-miterlimit="10"/>
<path d="M327.194 281.117L116.605 293.198C111.66 293.482 107.406 296.894 106.098 301.721L102.971 313.193" stroke="#7ABCF0" stroke-width="0.5" stroke-miterlimit="10"/>
<path d="M691.128 328.967L687.737 312.657C732.568 303.34 765.019 290.389 785.321 280.538L792.624 295.5" stroke="#7ABCF0" stroke-width="0.5" stroke-miterlimit="10"/>
<path d="M649.339 229.064L589.161 192.863" stroke="#7ABCF0" stroke-width="0.5" stroke-miterlimit="10"/>
<path d="M379.29 226.364L382.761 235.159C383.478 236.957 385.575 237.859 387.375 237.143C398.284 232.94 408.754 229.12 418.84 225.731C420.697 225.113 421.656 223.116 421.038 221.261L418.071 212.336" stroke="#7ABCF0" stroke-width="0.5" stroke-miterlimit="10"/>
<path d="M256.896 285.15L257.734 299.767L295.101 297.623L294.262 283.006" stroke="#7ABCF0" stroke-width="0.5" stroke-miterlimit="10"/>
<path d="M461.513 200.186L464.128 245.77" stroke="#7ABCF0" stroke-width="0.5" stroke-miterlimit="10"/>
<path d="M686.692 307.811L680.128 276.301" stroke="#7ABCF0" stroke-width="0.5" stroke-miterlimit="10"/>
<path d="M804.732 237.318L824.498 276.962" stroke="#7ABCF0" stroke-width="0.5" stroke-miterlimit="10"/>
<path d="M507.994 128.688L489.387 129.755L490.451 148.294L509.057 147.227" stroke="#7ABCF0" stroke-width="0.5" stroke-miterlimit="10"/>
<path d="M482.121 148.415L437.566 150.971" stroke="#7ABCF0" stroke-width="0.5" stroke-miterlimit="10"/>
<path d="M64.7665 262.395L82.173 260.016L68.9443 164.044L51.5378 166.422" stroke="#0365DF" stroke-width="0.5" stroke-miterlimit="10"/>
<path d="M78.2311 231.423L60.8246 233.801" stroke="#0365DF" stroke-width="0.5" stroke-miterlimit="10"/>
<path d="M523.966 109.325L532.661 77.2466" stroke="#7ABCF0" stroke-width="0.5" stroke-miterlimit="10"/>
<path d="M404.878 104.506L527.174 97.4897" stroke="#7ABCF0" stroke-width="0.5" stroke-miterlimit="10"/>
<path d="M558.553 298.555L561.301 311.683" stroke="#7ABCF0" stroke-width="0.5" stroke-miterlimit="10"/>
</svg>
