<svg width="100%" height="100%" viewbox="0 0 305 305" fill="none" uk-scrollspy="cls: vis; delay: 200" xmlns="http://www.w3.org/2000/svg">

						<style>
							svg.vis .spin-word {
								animation: spin 3s infinite;
								animation-delay: 0.5s;
							}
							@keyframes spin {
								0% {
									transform: rotate(0deg);
									transform-origin: center;
								}
								100% {
									transform: rotate(360deg);
									transform-origin: center;
								}
							}
						</style>

						<g clip-path="url(#clip0)">
							<path id="text" d="M71.0098 130.272V140H73.1538V128.56H63.9058V140H66.0498V130.272H71.0098ZM81.0131 138.448C78.9331 138.448 77.4131 136.832 77.4131 134.336V134.208C77.4131 131.744 78.7411 130.096 80.9811 130.096C83.2211 130.096 84.5331 131.84 84.5331 134.192V134.32C84.5331 136.8 83.1731 138.448 81.0131 138.448ZM80.9811 140.16C84.4531 140.16 86.7411 137.632 86.7411 134.304V134.176C86.7411 130.816 84.3731 128.4 80.9811 128.4C77.5731 128.4 75.1891 130.88 75.1891 134.224V134.352C75.1891 137.648 77.4771 140.16 80.9811 140.16ZM90.9821 135.424C91.1101 133.712 91.1901 131.648 91.2381 130.256H94.9981V138.288H90.2621C90.6941 137.584 90.8701 136.592 90.9821 135.424ZM88.9501 142.08L89.0301 140H96.5501L96.6301 142.08H98.4701V138.288H97.1101V128.56H89.3341C89.3341 130.048 89.2541 133.024 89.0781 135.28C88.9021 136.992 88.6141 137.984 87.8461 138.288H87.1261V142.08H88.9501ZM103.069 128.56L99.2445 140H101.245L102.141 137.168H106.509L107.421 140H109.629L105.853 128.56H103.069ZM102.637 135.616L104.333 130.304L106.013 135.616H102.637ZM111.375 128.56V140H113.503V135.648H115.103C117.551 135.648 119.295 134.576 119.295 132.16V132.096C119.295 129.712 117.615 128.56 115.055 128.56H111.375ZM115.055 134.112H113.503V130.208H115.055C116.415 130.208 117.215 130.736 117.215 132.096V132.16C117.215 133.44 116.463 134.112 115.055 134.112ZM121.125 140H123.269L128.581 131.376V140H130.725V128.56H128.581L123.269 137.136V128.56H121.125V140ZM133.328 128.56V140H135.248V131.36L138.72 140H139.408L142.816 131.36V140H144.944V128.56H142.128L139.184 136.368L136.176 128.56H133.328ZM158.541 130.272V140H160.685V128.56H151.437V140H153.581V130.272H158.541ZM166.24 128.56L162.416 140H164.416L165.312 137.168H169.68L170.592 140H172.8L169.024 128.56H166.24ZM165.808 135.616L167.504 130.304L169.184 135.616H165.808ZM174.546 128.56V140H176.466V131.36L179.938 140H180.626L184.034 131.36V140H186.162V128.56H183.346L180.402 136.368L177.394 128.56H174.546ZM192.925 130.208H194.541V133.904H192.941C191.485 133.904 190.765 133.28 190.765 132.048V131.984C190.765 130.64 191.565 130.208 192.925 130.208ZM190.093 140L193.181 135.408H194.541V140H196.669V128.56H192.925C190.461 128.56 188.669 129.552 188.669 131.936V132C188.669 133.824 189.709 134.768 191.181 135.072L187.773 140H190.093ZM201.569 130.24V140H203.713V130.24H206.897V128.56H198.385V130.24H201.569ZM208.609 128.56V140H210.737V135.136H215.873V140H218.017V128.56H215.873V133.424H210.737V128.56H208.609ZM220.625 128.56V140H224.193C226.753 140 228.433 138.832 228.433 136.432V136.368C228.433 133.936 226.689 132.896 224.241 132.896H222.753V128.56H220.625ZM231.745 140V128.56H229.617V140H231.745ZM224.193 138.352H222.753V134.448H224.193C225.601 134.448 226.353 135.072 226.353 136.352V136.416C226.353 137.808 225.537 138.352 224.193 138.352ZM234.375 128.56V140H241.799V138.32H236.503V134.976H240.535V133.376H236.503V130.24H241.527V128.56H234.375ZM62.0699 151.856V150.336H59.9579V151.856C57.0939 151.936 54.7419 153.248 54.7419 156.224V156.32C54.7419 159.2 56.9499 160.576 59.9579 160.624V162.16H62.0699V160.624C64.9339 160.576 67.2379 159.216 67.2859 156.288V156.16C67.2859 153.248 65.0779 151.936 62.0699 151.856ZM59.9579 153.408V159.088C58.1979 159.04 56.8859 158.32 56.8859 156.336V156.224C56.8859 154.08 58.2779 153.488 59.9579 153.408ZM62.0699 159.072V153.408C63.8459 153.488 65.1419 154.128 65.1419 156.16V156.288C65.0939 158.384 63.7659 159.024 62.0699 159.072ZM74.5053 160.448C72.4253 160.448 70.9053 158.832 70.9053 156.336V156.208C70.9053 153.744 72.2333 152.096 74.4733 152.096C76.7133 152.096 78.0253 153.84 78.0253 156.192V156.32C78.0253 158.8 76.6653 160.448 74.5053 160.448ZM74.4733 162.16C77.9453 162.16 80.2333 159.632 80.2333 156.304V156.176C80.2333 152.816 77.8653 150.4 74.4733 150.4C71.0653 150.4 68.6813 152.88 68.6813 156.224V156.352C68.6813 159.648 70.9693 162.16 74.4733 162.16ZM84.0922 152.24V162H86.2362V152.24H89.4202V150.56H80.9082V152.24H84.0922ZM95.8959 160.448C93.8159 160.448 92.2959 158.832 92.2959 156.336V156.208C92.2959 153.744 93.6239 152.096 95.8639 152.096C98.1039 152.096 99.4159 153.84 99.4159 156.192V156.32C99.4159 158.8 98.0559 160.448 95.8959 160.448ZM95.8639 162.16C99.3359 162.16 101.624 159.632 101.624 156.304V156.176C101.624 152.816 99.2559 150.4 95.8639 150.4C92.4559 150.4 90.0719 152.88 90.0719 156.224V156.352C90.0719 159.648 92.3599 162.16 95.8639 162.16ZM103.679 150.56V162H105.823V152.272H110.607V150.56H103.679ZM112.46 150.56V162H114.588V157.648H116.188C118.636 157.648 120.38 156.576 120.38 154.16V154.096C120.38 151.712 118.7 150.56 116.14 150.56H112.46ZM116.14 156.112H114.588V152.208H116.14C117.5 152.208 118.3 152.736 118.3 154.096V154.16C118.3 155.44 117.548 156.112 116.14 156.112ZM124.358 150.56L120.534 162H122.534L123.43 159.168H127.798L128.71 162H130.918L127.142 150.56H124.358ZM123.926 157.616L125.622 152.304L127.302 157.616H123.926ZM138.617 151.856V150.336H136.505V151.856C133.641 151.936 131.289 153.248 131.289 156.224V156.32C131.289 159.2 133.497 160.576 136.505 160.624V162.16H138.617V160.624C141.481 160.576 143.785 159.216 143.833 156.288V156.16C143.833 153.248 141.625 151.936 138.617 151.856ZM136.505 153.408V159.088C134.745 159.04 133.433 158.32 133.433 156.336V156.224C133.433 154.08 134.825 153.488 136.505 153.408ZM138.617 159.072V153.408C140.393 153.488 141.689 154.128 141.689 156.16V156.288C141.641 158.384 140.313 159.024 138.617 159.072ZM145.804 162H147.948L153.26 153.376V162H155.404V150.56H153.26L147.948 159.136V150.56H145.804V162ZM158.007 162H160.151L165.463 153.376V162H167.607V150.56H165.463L160.151 159.136V150.56H158.007V162ZM179.333 160.448C177.253 160.448 175.733 158.832 175.733 156.336V156.208C175.733 153.744 177.061 152.096 179.301 152.096C181.541 152.096 182.853 153.84 182.853 156.192V156.32C182.853 158.8 181.493 160.448 179.333 160.448ZM179.301 162.16C182.773 162.16 185.061 159.632 185.061 156.304V156.176C185.061 152.816 182.693 150.4 179.301 150.4C175.893 150.4 173.509 152.88 173.509 156.224V156.352C173.509 159.648 175.797 162.16 179.301 162.16ZM190.992 150.56V162H195.392C197.904 162 199.312 160.928 199.312 158.8V158.736C199.312 157.2 198.576 156.368 197.024 156.032C198.32 155.632 198.832 154.752 198.832 153.6V153.536C198.832 151.44 197.456 150.56 195.088 150.56H190.992ZM195.136 160.48H193.072V156.816H194.992C196.576 156.816 197.216 157.392 197.216 158.592V158.656C197.216 159.856 196.56 160.48 195.136 160.48ZM194.832 155.376H193.072V152.08H194.8C196.16 152.08 196.784 152.544 196.784 153.632V153.696C196.784 154.864 196.24 155.376 194.832 155.376ZM204.076 150.56L200.252 162H202.252L203.148 159.168H207.516L208.428 162H210.636L206.86 150.56H204.076ZM203.644 157.616L205.34 152.304L207.02 157.616H203.644ZM212.382 150.56V162H226.03V150.56H223.902V160.288H220.286V150.56H218.142V160.288H214.526V150.56H212.382ZM228.648 150.56V162H236.072V160.32H230.776V156.976H234.808V155.376H230.776V152.24H235.8V150.56H228.648ZM237.992 150.56V162H239.912V153.36L243.384 162H244.072L247.48 153.36V162H249.608V150.56H246.792L243.848 158.368L240.84 150.56H237.992ZM100.08 174.272V184H102.224V172.56H92.9761V184H95.1201V174.272H100.08ZM105.971 184.144C107.923 184.144 108.707 182.912 109.475 181.216L113.299 172.56H111.251L108.659 178.656L106.003 172.56H103.763L107.651 181.008C107.187 181.92 106.627 182.304 105.843 182.304C105.411 182.304 105.171 182.224 105.107 182.208V183.968C105.155 184.016 105.459 184.144 105.971 184.144ZM117.077 174.24V184H119.221V174.24H122.405V172.56H113.893V174.24H117.077ZM124.117 172.56V184H131.541V182.32H126.245V178.976H130.277V177.376H126.245V174.24H131.269V172.56H124.117ZM133.46 172.56V184H147.108V172.56H144.98V182.288H141.364V172.56H139.22V182.288H135.604V172.56H133.46ZM149.726 172.56V184H157.15V182.32H151.854V178.976H155.886V177.376H151.854V174.24H156.878V172.56H149.726ZM163.922 184.16C166.658 184.16 168.594 182.784 168.93 180.016H166.85C166.61 181.632 165.522 182.432 163.922 182.432C161.794 182.432 160.578 180.912 160.578 178.336V178.208C160.578 175.648 161.906 174.08 163.906 174.08C165.57 174.08 166.402 174.848 166.642 176.384H168.802C168.546 173.696 166.514 172.384 163.89 172.384C160.69 172.384 158.338 174.784 158.338 178.224V178.352C158.338 181.872 160.338 184.16 163.922 184.16ZM172.905 174.24V184H175.049V174.24H178.233V172.56H169.721V174.24H172.905ZM179.945 172.56V184H184.345C186.857 184 188.265 182.928 188.265 180.8V180.736C188.265 179.2 187.529 178.368 185.977 178.032C187.273 177.632 187.785 176.752 187.785 175.6V175.536C187.785 173.44 186.409 172.56 184.041 172.56H179.945ZM184.089 182.48H182.025V178.816H183.945C185.529 178.816 186.169 179.392 186.169 180.592V180.656C186.169 181.856 185.513 182.48 184.089 182.48ZM183.785 177.376H182.025V174.08H183.753C185.113 174.08 185.737 174.544 185.737 175.632V175.696C185.737 176.864 185.193 177.376 183.785 177.376ZM190.242 184H192.386L197.698 175.376V184H199.842V172.56H197.698L192.386 181.136V172.56H190.242V184ZM202.445 184H204.589L209.901 175.376V184H212.045V172.56H209.901L204.589 181.136V172.56H202.445V184Z" fill="#7ABCF0"/>
							<path class="spin-word" d="M157.109 303.577L156.681 294.535L154.688 294.629L155.192 305.262L163.788 304.855L163.284 294.222L161.291 294.316L161.719 303.358L157.109 303.577Z" fill="#7ABCF0"/>
							<path class="spin-word" d="M142.691 295.715C144.622 295.85 145.929 297.448 145.768 299.765L145.76 299.884C145.601 302.171 144.262 303.615 142.182 303.471C140.103 303.326 138.997 301.623 139.149 299.439L139.157 299.32C139.317 297.018 140.686 295.576 142.691 295.715ZM142.831 294.128C139.608 293.904 137.321 296.104 137.107 299.193L137.098 299.312C136.882 302.431 138.924 304.826 142.073 305.045C145.236 305.265 147.609 303.116 147.825 300.012L147.833 299.893C148.046 296.834 146.084 294.354 142.831 294.128Z" fill="#7ABCF0"/>
							<path class="spin-word" d="M127.102 296.684C126.69 298.228 126.262 300.102 125.978 301.366L122.54 300.719L123.922 293.374L128.253 294.189C127.737 294.759 127.405 295.636 127.102 296.684ZM130.106 290.947L129.674 292.836L122.798 291.541L123.083 289.625L121.4 289.309L120.747 292.776L121.991 293.011L120.316 301.907L127.427 303.245C127.683 301.884 128.269 299.177 128.818 297.144C129.274 295.609 129.708 294.751 130.463 294.605L131.121 294.729L131.774 291.261L130.106 290.947Z" fill="#7ABCF0"/>
							<path class="spin-word" d="M109.243 299.062L115.754 289.92L113.974 289.376L112.407 291.654L108.52 290.467L108.477 287.699L106.512 287.099L106.765 298.306L109.243 299.062ZM111.544 292.9L108.592 297.167L108.539 291.983L111.544 292.9Z" fill="#7ABCF0"/>
							<path class="spin-word" d="M95.9881 294.531L100.134 284.726L98.3097 283.955L96.7327 287.685L95.3613 287.105C93.2632 286.218 91.38 286.505 90.5045 288.576L90.4813 288.63C89.6175 290.674 90.6399 292.27 92.834 293.197L95.9881 294.531ZM94.8459 288.439L96.1761 289.001L94.7614 292.347L93.4312 291.785C92.2656 291.292 91.7713 290.55 92.2641 289.384L92.2873 289.329C92.7511 288.232 93.6391 287.929 94.8459 288.439Z" fill="#7ABCF0"/>
							<path class="spin-word" d="M82.5887 277.981C84.2777 278.926 84.7776 280.929 83.6433 282.956L83.5851 283.06C82.4654 285.061 80.6381 285.796 78.8192 284.778C77.0003 283.76 76.7274 281.747 77.7963 279.837L77.8544 279.733C78.9814 277.72 80.8347 276.999 82.5887 277.981ZM83.3926 276.605C80.5733 275.028 77.5666 276.041 76.0542 278.743L75.9961 278.847C74.4692 281.575 75.2941 284.613 78.0485 286.155C80.8159 287.703 83.8787 286.773 85.3983 284.058L85.4565 283.954C86.9543 281.277 86.238 278.198 83.3926 276.605Z" fill="#7ABCF0"/>
							<path class="spin-word" d="M66.314 278.799L72.531 270.158L70.9236 269.001L68.0195 273.038L67.6001 266.61L65.7026 265.245L66.2093 272.469L59.6582 274.029L61.3865 275.272L67.5238 273.727L64.7066 277.643L66.314 278.799Z" fill="#7ABCF0"/>
							<path class="spin-word" d="M24.8199 233.659L32.3876 228.691L31.2928 227.024L22.3933 232.865L27.1154 240.059L36.0149 234.218L34.9202 232.55L27.3525 237.517L24.8199 233.659Z" fill="#7ABCF0"/>
							<path class="spin-word" d="M24.2566 217.246C25.123 218.977 24.4115 220.915 22.3347 221.954L22.2281 222.008C20.1779 223.034 18.2534 222.615 17.3203 220.752C16.3873 218.888 17.2919 217.07 19.249 216.09L19.3555 216.037C21.4191 215.003 23.3568 215.449 24.2566 217.246ZM25.6945 216.559C24.2482 213.67 21.1916 212.82 18.4224 214.206L18.3159 214.259C15.5201 215.659 14.4962 218.636 15.9091 221.458C17.3287 224.294 20.3854 225.244 23.1679 223.852L23.2744 223.798C26.0169 222.425 27.1541 219.475 25.6945 216.559Z" fill="#7ABCF0"/>
							<path class="spin-word" d="M15.4942 204.316C13.9558 204.746 12.1246 205.33 10.8915 205.729L9.70013 202.44L16.7276 199.895L18.2281 204.038C17.4753 203.883 16.5516 204.044 15.4942 204.316ZM21.9615 203.985L20.1163 204.574L17.7337 197.994L19.5282 197.265L18.9452 195.655L15.6275 196.857L16.0584 198.047L7.54709 201.129L10.0108 207.933C11.3127 207.461 13.9419 206.588 15.9715 206.027C17.5251 205.639 18.4843 205.577 18.9936 206.152L19.2217 206.782L22.5395 205.581L21.9615 203.985Z" fill="#7ABCF0"/>
							<path class="spin-word" d="M4.36465 190.148L15.548 191.105L15.1107 189.296L12.3533 189.105L11.3981 185.154L13.7601 183.71L13.2772 181.713L3.75583 187.63L4.36465 190.148ZM10.8411 188.996L5.66563 188.623L10.1028 185.942L10.8411 188.996Z" fill="#7ABCF0"/>
							<path class="spin-word" d="M1.52578 176.431L12.0763 175.014L11.8128 173.051L7.79913 173.59L7.60097 172.114C7.29777 169.857 6.09311 168.381 3.86495 168.68L3.80592 168.688C1.60728 168.984 0.752919 170.676 1.06999 173.037L1.52578 176.431ZM6.19033 172.349L6.38256 173.78L2.78208 174.264L2.58986 172.833C2.42142 171.578 2.80928 170.775 4.06354 170.607L4.12257 170.599C5.30305 170.44 6.01594 171.05 6.19033 172.349Z" fill="#7ABCF0"/>
							<path class="spin-word" d="M8.96155 156.477C9.00662 158.412 7.53622 159.861 5.21425 159.915L5.09517 159.918C2.80296 159.971 1.24109 158.771 1.19256 156.687C1.14402 154.604 2.73801 153.345 4.92602 153.294L5.0451 153.292C7.35219 153.238 8.91476 154.467 8.96155 156.477ZM10.5549 156.469C10.4797 153.239 8.07834 151.166 4.98237 151.238L4.8633 151.241C1.73756 151.313 -0.458687 153.569 -0.385196 156.724C-0.311358 159.895 2.04738 162.059 5.15824 161.986L5.27731 161.983C8.34351 161.912 10.6308 159.729 10.5549 156.469Z" fill="#7ABCF0"/>
							<path class="spin-word" d="M-0.019309 142.88L10.5827 143.838L10.761 141.866L5.80847 141.418L11.1297 137.788L11.3402 135.46L5.37757 139.571L0.703228 134.723L0.511513 136.843L4.96328 141.342L0.158999 140.908L-0.019309 142.88Z" fill="#7ABCF0"/>
							<path class="spin-word" d="M17.7468 84.1957L25.8722 88.1858L26.7515 86.395L17.1962 81.7028L13.403 89.4272L22.9584 94.1195L23.8378 92.3287L15.7124 88.3386L17.7468 84.1957Z" fill="#7ABCF0"/>
							<path class="spin-word" d="M31.592 75.3643C30.5424 76.9905 28.5119 77.3634 26.5605 76.1038L26.4604 76.0392C24.534 74.7959 23.9157 72.926 25.046 71.1747C26.1764 69.4234 28.2019 69.2777 30.0408 70.4646L30.1409 70.5292C32.0798 71.7806 32.6819 73.6755 31.592 75.3643ZM32.9143 76.2532C34.6663 73.5387 33.8445 70.4742 31.2425 68.7948L31.1425 68.7303C28.5155 67.0347 25.4317 67.6669 23.72 70.3189C22.0003 72.9833 22.7362 76.0987 25.3506 77.7861L25.4507 77.8507C28.0276 79.5139 31.1461 78.9927 32.9143 76.2532Z" fill="#7ABCF0"/>
							<path class="spin-word" d="M38.2691 61.2439C37.1161 60.1382 35.682 58.8584 34.7113 57.9996L36.938 55.3009L42.703 60.0575L39.8983 63.4568C39.6488 62.7298 39.0411 62.016 38.2691 61.2439ZM41.843 66.6442L40.3975 65.355L44.8509 59.9575L46.3913 61.1318L47.4809 59.8112L44.7592 57.5655L43.9538 58.5416L36.9715 52.7806L32.3664 58.3618C33.4344 59.243 35.5231 61.0629 37.0381 62.5252C38.1627 63.6654 38.7041 64.4596 38.4675 65.1909L38.0411 65.7077L40.7628 67.9534L41.843 66.6442Z" fill="#7ABCF0"/>
							<path class="spin-word" d="M44.8085 44.4562L49.6718 54.5722L51.007 53.2756L49.7692 50.8042L52.6852 47.9726L55.1299 49.272L56.6038 47.8406L46.667 42.6515L44.8085 44.4562ZM49.0942 49.4466L46.7829 44.8011L51.348 47.2581L49.0942 49.4466Z" fill="#7ABCF0"/>
							<path class="spin-word" d="M55.1757 35.0359L61.7612 43.3998L63.317 42.1748L60.8117 38.993L61.9815 38.072C63.7712 36.6628 64.4292 34.8751 63.0384 33.1087L63.0016 33.0619C61.6292 31.319 59.7378 31.4439 57.8662 32.9175L55.1757 35.0359ZM61.0622 36.9766L59.9275 37.87L57.6802 35.0158L58.8148 34.1224C59.8091 33.3395 60.698 33.265 61.4809 34.2593L61.5177 34.3061C62.2545 35.2419 62.0916 36.1661 61.0622 36.9766Z" fill="#7ABCF0"/>
							<path class="spin-word" d="M76.138 31.2908C74.4948 32.3136 72.4994 31.7845 71.272 29.8127L71.209 29.7116C69.9974 27.765 70.2361 25.8101 72.0056 24.7086C73.7752 23.6071 75.6693 24.3396 76.8259 26.1977L76.8888 26.2988C78.1083 28.258 77.8443 30.2286 76.138 31.2908ZM76.9546 32.659C79.6974 30.9516 80.2617 27.8295 78.6252 25.2004L78.5623 25.0993C76.91 22.4449 73.8513 21.7008 71.1716 23.3688C68.4794 25.0446 67.8156 28.1761 69.46 30.8178L69.5229 30.9189C71.1437 33.5227 74.1865 34.3821 76.9546 32.659Z" fill="#7ABCF0"/>
							<path class="spin-word" d="M83.2782 16.6433L87.8445 26.2595L89.6332 25.4101L87.5002 20.9181L93.3318 23.6539L95.4433 22.6512L88.8721 19.6074L90.6689 13.1174L88.7457 14.0306L87.1362 20.1515L85.067 15.794L83.2782 16.6433Z" fill="#7ABCF0"/>
							<path class="spin-word" d="M142.842 2.09688L143.539 11.1222L145.528 10.9687L144.709 0.355006L136.129 1.01724L136.948 11.631L138.937 11.4774L138.24 2.45206L142.842 2.09688Z" fill="#7ABCF0"/>
							<path class="spin-word" d="M157.487 9.52684C155.553 9.45009 154.2 7.89145 154.292 5.57066L154.296 5.45165C154.387 3.16063 155.683 1.67732 157.766 1.75998C159.848 1.84263 161.004 3.51262 160.917 5.69951L160.912 5.81852C160.821 8.12443 159.496 9.60655 157.487 9.52684ZM157.394 11.1175C160.623 11.2456 162.843 8.9795 162.966 5.88512L162.971 5.76611C163.095 2.64198 160.982 0.308206 157.828 0.18304C154.66 0.0572843 152.351 2.27521 152.228 5.38446L152.223 5.50348C152.102 8.5681 154.136 10.9882 157.394 11.1175Z" fill="#7ABCF0"/>
							<path class="spin-word" d="M173.041 8.09522C173.407 6.54013 173.779 4.65454 174.025 3.382L177.481 3.92685L176.317 11.3097L171.964 10.6234C172.463 10.0389 172.769 9.15259 173.041 8.09522ZM170.209 13.9188L170.584 12.0185L177.496 13.1082L177.268 15.0317L178.959 15.2983L179.509 11.8128L178.259 11.6157L179.668 2.67397L172.521 1.54716C172.305 2.9149 171.8 5.63879 171.312 7.68696C170.902 9.23509 170.493 10.1052 169.743 10.2733L169.081 10.169L168.532 13.6545L170.209 13.9188Z" fill="#7ABCF0"/>
							<path class="spin-word" d="M190.822 5.18833L184.585 14.5202L186.38 15.0105L187.878 12.6879L191.799 13.7587L191.924 16.5244L193.906 17.0656L193.321 5.87076L190.822 5.18833ZM188.704 11.4163L191.529 7.06369L191.735 12.2439L188.704 11.4163Z" fill="#7ABCF0"/>
							<path class="spin-word" d="M204.205 9.32457L200.352 19.2483L202.198 19.9649L203.664 16.1897L205.052 16.7285C207.175 17.5529 209.049 17.2103 209.863 15.1145L209.884 15.059C210.687 12.991 209.618 11.4259 207.397 10.5638L204.205 9.32457ZM205.527 15.38L204.181 14.8573L205.496 11.4708L206.842 11.9934C208.022 12.4514 208.538 13.1788 208.08 14.3586L208.059 14.4141C207.627 15.5244 206.749 15.8541 205.527 15.38Z" fill="#7ABCF0"/>
							<path class="spin-word" d="M218.09 25.4691C216.373 24.5744 215.814 22.5872 216.888 20.5276L216.943 20.422C218.003 18.3888 219.807 17.6002 221.656 18.5636C223.504 19.5271 223.837 21.5305 222.825 23.4713L222.77 23.5769C221.703 25.6233 219.872 26.3982 218.09 25.4691ZM217.327 26.868C220.192 28.3614 223.167 27.2595 224.599 24.5134L224.654 24.4078C226.099 21.6353 225.184 18.6232 222.385 17.1642C219.573 15.6983 216.539 16.7193 215.101 19.4786L215.046 19.5842C213.628 22.3039 214.436 25.3608 217.327 26.868Z" fill="#7ABCF0"/>
							<path class="spin-word" d="M234.333 24.1684L228.375 32.9904L230.016 34.0986L232.799 29.9775L233.409 36.39L235.346 37.6982L234.626 30.4922L241.127 28.7389L239.363 27.5474L233.274 29.2743L235.974 25.2766L234.333 24.1684Z" fill="#7ABCF0"/>
							<path class="spin-word" d="M277.149 68.0573L269.732 73.2469L270.876 74.8815L279.598 68.7786L274.664 61.7277L265.942 67.8306L267.086 69.4652L274.503 64.2756L277.149 68.0573Z" fill="#7ABCF0"/>
							<path class="spin-word" d="M278.199 84.4459C277.282 82.7417 277.935 80.7835 279.981 79.6826L280.085 79.6261C282.104 78.5393 284.04 78.9005 285.028 80.7359C286.016 82.5712 285.166 84.4155 283.239 85.4529L283.134 85.5093C281.102 86.6032 279.152 86.2157 278.199 84.4459ZM276.782 85.1748C278.314 88.0196 281.394 88.7793 284.121 87.3114L284.226 87.2549C286.979 85.7729 287.914 82.7671 286.418 79.9878C284.915 77.1954 281.831 76.336 279.091 77.8109L278.986 77.8674C276.286 79.3212 275.237 82.3038 276.782 85.1748Z" fill="#7ABCF0"/>
							<path class="spin-word" d="M287.342 97.11C288.867 96.6341 290.68 95.996 291.9 95.5606L293.189 98.8135L286.24 101.566L284.617 97.4686C285.374 97.601 286.293 97.4134 287.342 97.11ZM280.887 97.6329L282.714 96.9894L285.291 103.495L283.519 104.277L284.149 105.869L287.43 104.57L286.964 103.393L295.38 100.059L292.715 93.3322C291.428 93.8421 288.826 94.7927 286.814 95.4135C285.272 95.8479 284.315 95.9386 283.789 95.3784L283.542 94.7555L280.262 96.0549L280.887 97.6329Z" fill="#7ABCF0"/>
							<path class="spin-word" d="M298.887 110.942L287.68 110.317L288.171 112.112L290.933 112.221L292.005 116.142L289.687 117.656L290.229 119.637L299.57 113.44L298.887 110.942ZM292.447 112.286L297.632 112.504L293.276 115.316L292.447 112.286Z" fill="#7ABCF0"/>
							<path class="spin-word" d="M302.132 124.568L291.628 126.298L291.95 128.252L295.945 127.594L296.187 129.063C296.557 131.311 297.805 132.75 300.024 132.385L300.082 132.375C302.271 132.015 303.075 130.298 302.688 127.947L302.132 124.568ZM297.59 128.787L297.356 127.362L300.94 126.771L301.175 128.196C301.38 129.445 301.017 130.26 299.768 130.465L299.709 130.475C298.534 130.668 297.803 130.079 297.59 128.787Z" fill="#7ABCF0"/>
							<path class="spin-word" d="M295.291 144.734C295.189 142.801 296.616 141.309 298.935 141.186L299.054 141.18C301.344 141.058 302.94 142.211 303.051 144.293C303.161 146.374 301.605 147.679 299.42 147.795L299.301 147.801C296.996 147.924 295.398 146.741 295.291 144.734ZM293.699 144.788C293.87 148.015 296.332 150.016 299.424 149.852L299.543 149.846C302.666 149.68 304.794 147.361 304.627 144.209C304.459 141.042 302.037 138.949 298.93 139.114L298.811 139.12C295.748 139.283 293.526 141.532 293.699 144.788Z" fill="#7ABCF0"/>
							<path class="spin-word" d="M304.672 158.058L294.046 157.415L293.927 159.392L298.89 159.692L293.679 163.478L293.538 165.812L299.376 161.526L304.192 166.233L304.321 164.108L299.737 159.743L304.552 160.035L304.672 158.058Z" fill="#7ABCF0"/>
							<path class="spin-word" d="M288.656 217.244L280.416 213.497L279.59 215.313L289.28 219.719L292.842 211.886L283.152 207.479L282.326 209.295L290.566 213.042L288.656 217.244Z" fill="#7ABCF0"/>
							<path class="spin-word" d="M275.079 226.483C276.08 224.826 278.098 224.393 280.086 225.594L280.188 225.656C282.151 226.841 282.824 228.692 281.747 230.476C280.669 232.26 278.648 232.466 276.775 231.334L276.673 231.272C274.698 230.079 274.04 228.203 275.079 226.483ZM273.731 225.633C272.06 228.399 272.973 231.437 275.623 233.039L275.725 233.1C278.401 234.717 281.465 233.994 283.097 231.292C284.737 228.578 283.909 225.486 281.246 223.877L281.144 223.815C278.519 222.229 275.417 222.843 273.731 225.633Z" fill="#7ABCF0"/>
							<path class="spin-word" d="M268.824 240.795C270.009 241.866 271.481 243.102 272.477 243.932L270.331 246.696L264.427 242.112L267.13 238.631C267.401 239.35 268.03 240.046 268.824 240.795ZM265.091 235.503L266.575 236.749L262.283 242.276L260.709 241.148L259.659 242.5L262.446 244.664L263.222 243.665L270.372 249.216L274.81 243.5C273.716 242.651 271.574 240.894 270.017 239.477C268.859 238.371 268.294 237.593 268.509 236.855L268.919 236.326L266.132 234.162L265.091 235.503Z" fill="#7ABCF0"/>
							<path class="spin-word" d="M262.786 257.77L257.625 247.803L256.329 249.138L257.639 251.572L254.809 254.489L252.326 253.263L250.896 254.737L260.982 259.629L262.786 257.77ZM258.354 252.909L260.802 257.484L256.166 255.163L258.354 252.909Z" fill="#7ABCF0"/>
							<path class="spin-word" d="M252.703 267.494L245.872 259.329L244.353 260.6L246.952 263.706L245.81 264.661C244.063 266.123 243.458 267.929 244.901 269.653L244.939 269.699C246.363 271.4 248.25 271.219 250.077 269.691L252.703 267.494ZM246.762 265.728L247.869 264.802L250.2 267.588L249.093 268.515C248.122 269.327 247.236 269.428 246.424 268.457L246.386 268.411C245.621 267.498 245.757 266.569 246.762 265.728Z" fill="#7ABCF0"/>
							<path class="spin-word" d="M231.861 271.859C233.473 270.788 235.484 271.258 236.769 273.192L236.835 273.291C238.104 275.201 237.923 277.162 236.187 278.316C234.451 279.469 232.536 278.793 231.325 276.97L231.259 276.871C229.982 274.949 230.187 272.971 231.861 271.859ZM231.004 270.516C228.313 272.304 227.842 275.441 229.556 278.021L229.622 278.12C231.352 280.724 234.432 281.377 237.06 279.63C239.702 277.875 240.272 274.725 238.55 272.134L238.484 272.034C236.787 269.48 233.72 268.711 231.004 270.516Z" fill="#7ABCF0"/>
							<path class="spin-word" d="M225.159 286.712L220.309 277.236L218.546 278.138L220.812 282.565L214.902 280.003L212.821 281.068L219.48 283.915L217.876 290.456L219.772 289.486L221.199 283.32L223.396 287.614L225.159 286.712Z" fill="#7ABCF0"/>
						</g>
						<defs>
							<clipPath id="clip0">
								<rect width="305" height="305" rx="152.5" fill="white"/>
							</clipPath>
						</defs>
					</svg>
