<svg width="1226" height="139" viewBox="0 0 1226 139" fill="none" xmlns="http://www.w3.org/2000/svg">
<path d="M1.5 135C1.5 135 133.994 81.2713 211 80.5C310.529 79.503 384.203 145.733 457.717 137.054C465.562 136.128 472.831 132.682 479.315 128.169L587.659 52.7635C609.939 37.2569 597.385 2.25929 570.329 4.45049V4.45049C550.404 6.06409 539.896 27.9065 552.701 43.2561C575.419 70.4883 610.129 104.448 645.5 110C714.095 120.768 725.522 51.0463 794.5 59C860.544 66.6154 868.52 135.372 935 135C1001.03 134.63 997.929 36.8445 1061.5 19C1147 -5 1185.5 28.5 1225 1" stroke="#7ABCF0" stroke-width="2" stroke-linecap="round" stroke-dasharray="1 16"/>
</svg>
