<svg width="236" height="236" viewBox="0 0 236 236" fill="none" xmlns="http://www.w3.org/2000/svg">
	<style>
		.spin-word {
			animation: spin 3s infinite;
			animation-delay: 0.5s;
		}
		@keyframes spin {
			0% {
				transform: rotate(0deg);
				transform-origin: center;
			}
			100% {
				transform: rotate(360deg);
				transform-origin: center;
			}
		}
	</style>
<path d="M125.691 210.877C125.694 211.936 125.737 213.177 125.776 214.086L123.761 214.231L123.357 208.659L122.13 208.747L122.605 215.301L126.955 214.987C126.889 214.08 126.801 212.354 126.806 211.027C126.83 209.956 126.984 209.411 127.497 209.374C127.579 209.368 127.653 209.372 127.718 209.376L127.792 209.389L127.717 208.345C127.688 208.328 127.641 208.313 127.594 208.307C127.51 208.286 127.399 208.275 127.252 208.286C126.025 208.374 125.709 209.484 125.691 210.877Z" fill="#7ABCF0"/>
<path class="spin-word" d="M117.545 208.859L116.315 208.813L113.085 213.648L113.269 208.698L112.039 208.652L111.795 215.217L113.025 215.264L116.254 210.457L116.071 215.379L117.301 215.425L117.545 208.859Z" fill="#7ABCF0"/>
<path class="spin-word" d="M104.518 207.712C102.965 207.482 101.75 208.1 101.327 209.645L102.508 209.82C102.78 208.922 103.465 208.559 104.373 208.694C105.581 208.873 106.144 209.839 105.928 211.303L105.917 211.376C105.702 212.83 104.817 213.609 103.681 213.44C102.737 213.3 102.329 212.794 102.322 211.901L101.095 211.719C101.015 213.268 102.059 214.184 103.548 214.405C105.365 214.675 106.902 213.51 107.19 211.555L107.201 211.482C107.496 209.483 106.553 208.014 104.518 207.712Z" fill="#7ABCF0"/>
<path class="spin-word" d="M95.197 211.682L96.566 206.247L95.373 205.945L94.0039 211.38L92.232 210.932L91.9964 211.868L96.7331 213.065L96.9688 212.129L95.197 211.682Z" fill="#7ABCF0"/>
<path class="spin-word" d="M85.8172 209.907L90.1142 204.477L89.0349 204.086L87.9985 205.44L85.6412 204.585L85.7019 202.878L84.5104 202.446L84.3148 209.362L85.8172 209.907ZM87.4278 206.181L85.4755 208.718L85.6059 205.52L87.4278 206.181Z" fill="#7ABCF0"/>
<path class="spin-word" d="M75.1103 205.88C74.4181 205.539 73.7051 205.762 73.3238 206.434L74.0572 206.795C74.2319 206.523 74.5017 206.348 74.8067 206.499C75.0951 206.64 75.0973 206.949 74.9803 207.249L75.7385 207.623C76.0374 206.91 75.8026 206.221 75.1103 205.88ZM80.6475 200.814L79.5432 200.27L74.6247 203.368L76.8071 198.924L75.7027 198.38L72.8077 204.276L73.9121 204.819L78.8184 201.746L76.6482 206.166L77.7525 206.709L80.6475 200.814Z" fill="#7ABCF0"/>
<path class="spin-word" d="M67.5059 200.112L70.481 195.364L69.4385 194.709L66.4634 199.457L64.9152 198.485L64.4031 199.303L68.5419 201.901L69.0541 201.084L67.5059 200.112Z" fill="#7ABCF0"/>
<path class="spin-word" d="M60.498 196.579L64.4915 191.366L61.1098 188.771L60.5233 189.536L62.9357 191.388L61.7684 192.912L59.9318 191.502L59.3732 192.231L61.2099 193.641L60.1152 195.07L57.8267 193.314L57.2402 194.079L60.498 196.579Z" fill="#7ABCF0"/>
<path class="spin-word" d="M48.9567 186.646L53.7277 182.134L51.9931 180.297C51.0029 179.248 50.0007 179.083 49.1132 179.922L49.0865 179.947C48.4459 180.553 48.3891 181.189 48.8608 181.969C48.1831 181.586 47.6142 181.719 47.1338 182.173L47.1071 182.198C46.2329 183.025 46.4084 183.947 47.3419 184.935L48.9567 186.646ZM51.4601 181.003L52.2738 181.865L50.7457 183.31L49.9888 182.508C49.3644 181.847 49.3523 181.353 49.8528 180.879L49.8795 180.854C50.3799 180.381 50.8988 180.409 51.4601 181.003ZM49.4514 183.143L50.1452 183.878L48.7706 185.178L48.0894 184.456C47.5532 183.888 47.5007 183.445 47.9545 183.016L47.9812 182.991C48.4683 182.53 48.8963 182.555 49.4514 183.143Z" fill="#7ABCF0"/>
<path class="spin-word" d="M42.4163 179.378L47.6395 175.399L46.8996 174.427L44.6788 176.118L42.8931 173.771L45.1138 172.079L44.3684 171.099L39.1452 175.077L39.8907 176.057L42.1114 174.366L43.8972 176.714L41.6764 178.405L42.4163 179.378Z" fill="#7ABCF0"/>
<path class="spin-word" d="M41.6442 167.121L41.0136 166.064L35.2014 165.98L39.4511 163.443L38.8204 162.385L33.1831 165.751L33.8137 166.808L39.6022 166.906L35.3762 169.429L36.0068 170.486L41.6442 167.121Z" fill="#7ABCF0"/>
<path class="spin-word" d="M35.8446 156.283C35.2183 154.922 34.0458 154.329 32.9533 154.833C32.211 155.174 31.9316 155.819 32.1754 156.678C31.6762 156.099 31.026 156.004 30.3921 156.296C29.4247 156.741 29.1386 157.854 29.688 159.048C30.2604 160.292 31.2676 160.789 32.5422 160.374L32.0619 159.331C31.3621 159.501 30.8986 159.351 30.5912 158.683C30.3146 158.082 30.4528 157.613 30.9865 157.367C31.5453 157.11 31.9896 157.219 32.3085 157.912L32.6121 158.571L33.3793 158.218L33.0681 157.542C32.6839 156.707 32.8125 156.284 33.4213 156.003C34.0467 155.715 34.5988 155.926 34.9484 156.686C35.3364 157.529 34.9865 158.065 34.395 158.448L34.8829 159.508C36.0307 158.818 36.4785 157.661 35.8446 156.283Z" fill="#7ABCF0"/>
<path class="spin-word" d="M25.2931 126.343C24.2346 126.352 22.9952 126.402 22.0868 126.445L21.9294 124.43L27.4952 123.997L27.3994 122.769L20.854 123.278L21.1938 127.63C22.1001 127.559 23.824 127.462 25.15 127.461C26.2198 127.479 26.7658 127.63 26.8058 128.143C26.8123 128.225 26.8088 128.299 26.8047 128.364L26.7921 128.439L27.8357 128.358C27.8519 128.329 27.8666 128.282 27.8722 128.235C27.8932 128.151 27.9029 128.039 27.8915 127.893C27.7956 126.665 26.6847 126.355 25.2931 126.343Z" fill="#7ABCF0"/>
<path class="spin-word" d="M27.2597 118.181L27.2985 116.95L22.448 113.742L27.3948 113.901L27.4336 112.67L20.8716 112.46L20.8328 113.69L25.6557 116.897L20.7365 116.74L20.6977 117.97L27.2597 118.181Z" fill="#7ABCF0"/>
<path class="spin-word" d="M28.3265 105.138C28.5474 103.583 27.9219 102.37 26.3763 101.955L26.2084 103.138C27.1072 103.405 27.4739 104.089 27.3447 104.998C27.1729 106.208 26.2111 106.777 24.7475 106.568L24.6747 106.557C23.2202 106.35 22.4365 105.468 22.598 104.331C22.7323 103.384 23.2358 102.974 24.1279 102.962L24.3023 101.733C22.7544 101.661 21.8449 102.71 21.633 104.202C21.3747 106.022 22.5484 107.554 24.503 107.832L24.5757 107.843C26.5757 108.128 28.0372 107.176 28.3265 105.138Z" fill="#7ABCF0"/>
<path class="spin-word" d="M24.3037 95.8303L29.7426 97.1724L30.0366 95.9769L24.5978 94.6348L25.0345 92.8593L24.0983 92.6282L22.9309 97.3748L23.8671 97.6058L24.3037 95.8303Z" fill="#7ABCF0"/>
<path class="spin-word" d="M26.0204 86.4342L31.4717 90.7065L31.856 89.6243L30.4968 88.5941L31.3363 86.2307L33.043 86.2826L33.4674 85.0879L26.5555 84.9278L26.0204 86.4342ZM29.7529 88.0269L27.2064 86.0861L30.4018 86.2001L29.7529 88.0269Z" fill="#7ABCF0"/>
<path class="spin-word" d="M29.9787 75.6983C30.3149 75.0037 30.0883 74.2913 29.4141 73.9132L29.0579 74.6491C29.3311 74.8225 29.507 75.0916 29.3589 75.3976C29.2188 75.687 28.9109 75.6907 28.6096 75.5752L28.2414 76.3359C28.9555 76.6314 29.6425 76.3928 29.9787 75.6983ZM35.0747 81.2136L35.6111 80.1056L32.4857 75.1993L36.9399 77.3604L37.4763 76.2524L31.5676 73.3856L31.0313 74.4936L34.1318 79.3879L29.7024 77.2388L29.1661 78.3468L35.0747 81.2136Z" fill="#7ABCF0"/>
<path class="spin-word" d="M35.6961 68.0582L40.4584 71.0111L41.1061 69.9644L36.3438 67.0115L37.3056 65.4571L36.4859 64.9488L33.9145 69.1043L34.7342 69.6126L35.6961 68.0582Z" fill="#7ABCF0"/>
<path class="spin-word" d="M39.1833 61.0267L44.4166 64.9963L46.9892 61.5986L46.2206 61.0157L44.3855 63.4395L42.8557 62.2791L44.2529 60.4338L43.5209 59.8786L42.1238 61.7239L40.6892 60.6357L42.4301 58.3364L41.6615 57.7535L39.1833 61.0267Z" fill="#7ABCF0"/>
<path class="spin-word" d="M49.0388 49.4251L53.5755 54.1766L55.4007 52.4312C56.4428 51.4347 56.6018 50.4309 55.7579 49.5471L55.7325 49.5205C55.1234 48.8826 54.4881 48.8289 53.7111 49.305C54.0901 48.6248 53.9535 48.0562 53.4966 47.5777L53.4713 47.5512C52.6401 46.6806 51.7203 46.8609 50.738 47.8003L49.0388 49.4251ZM54.6918 51.9014L53.8356 52.7202L52.3826 51.1984L53.179 50.4367C53.8361 49.8084 54.33 49.7937 54.8059 50.2922L54.8313 50.3187C55.3072 50.8171 55.2825 51.3365 54.6918 51.9014ZM52.5416 49.9021L51.8115 50.6003L50.5044 49.2313L51.2213 48.5459C51.7854 48.0064 52.2283 47.9515 52.6598 48.4034L52.6851 48.43C53.1483 48.9151 53.1257 49.3436 52.5416 49.9021Z" fill="#7ABCF0"/>
<path class="spin-word" d="M56.2613 42.8421L60.2682 48.0488L61.2356 47.3033L59.532 45.0896L61.8668 43.2904L63.5705 45.5041L64.5451 44.753L60.5383 39.5463L59.5636 40.2974L61.2672 42.5112L58.9323 44.3104L57.2287 42.0967L56.2613 42.8421Z" fill="#7ABCF0"/>
<path class="spin-word" d="M68.5033 42.0062L69.5562 41.3696L69.6045 35.5525L72.165 39.7924L73.218 39.1558L69.8214 33.5315L68.7685 34.1681L68.7059 39.9616L66.1597 35.7453L65.1067 36.3819L68.5033 42.0062Z" fill="#7ABCF0"/>
<path class="spin-word" d="M79.2973 36.1462C80.6532 35.5124 81.2387 34.3359 80.7292 33.2452C80.3831 32.5041 79.7373 32.2278 78.8804 32.4762C79.4564 31.9736 79.5475 31.3224 79.2519 30.6896C78.8008 29.7237 77.6867 29.4431 76.4973 29.9991C75.2579 30.5784 74.7671 31.5889 75.1896 32.8623L76.2293 32.3763C76.0547 31.6769 76.2025 31.2122 76.8679 30.9011C77.4668 30.6212 77.9356 30.7571 78.1845 31.29C78.4451 31.8478 78.3389 32.2931 77.6485 32.6158L76.9913 32.923L77.3491 33.689L78.0229 33.3741C78.8547 32.9853 79.2786 33.1117 79.5625 33.7195C79.8541 34.344 79.6465 34.8976 78.8896 35.2514C78.0494 35.6441 77.5122 35.2967 77.1252 34.7067L76.0688 35.2004C76.7658 36.3456 77.9249 36.7877 79.2973 36.1462Z" fill="#7ABCF0"/>
<path class="spin-word" d="M109.149 25.432C109.134 24.3727 109.076 23.1326 109.028 22.2237L111.041 22.0559L111.507 27.6237L112.733 27.5215L112.185 20.9737L107.839 21.3362C107.915 22.2428 108.022 23.9675 108.032 25.2946C108.02 26.3653 107.872 26.9125 107.36 26.9552C107.278 26.9621 107.204 26.959 107.139 26.9552L107.064 26.943L107.152 27.987C107.181 28.003 107.228 28.0175 107.274 28.0229C107.359 28.0435 107.47 28.0526 107.617 28.0404C108.843 27.9381 109.146 26.8247 109.149 25.432Z" fill="#7ABCF0"/>
<path class="spin-word" d="M117.317 27.358L118.547 27.3905L121.723 22.5197L121.594 27.4711L122.824 27.5037L122.995 20.9355L121.765 20.903L118.59 25.7462L118.717 20.8224L117.487 20.7898L117.317 27.358Z" fill="#7ABCF0"/>
<path class="spin-word" d="M130.355 28.3583C131.911 28.5714 133.119 27.9391 133.524 26.3902L132.342 26.2282C132.08 27.1291 131.399 27.4996 130.489 27.375C129.279 27.2094 128.706 26.2497 128.905 24.7839L128.915 24.7111C129.114 23.2543 129.991 22.4655 131.128 22.6212C132.074 22.7508 132.488 23.2526 132.505 24.1453L133.733 24.3135C133.796 22.764 132.742 21.8592 131.25 21.6549C129.431 21.4057 127.907 22.5883 127.64 24.5458L127.63 24.6186C127.357 26.6216 128.317 28.0793 130.355 28.3583Z" fill="#7ABCF0"/>
<path class="spin-word" d="M139.632 24.2844L138.323 29.7344L139.52 30.0225L140.828 24.5726L142.605 25.0004L142.83 24.0623L138.08 22.9185L137.855 23.8566L139.632 24.2844Z" fill="#7ABCF0"/>
<path class="spin-word" d="M149.031 25.954L144.795 31.4315L145.878 31.8106L146.9 30.445L149.266 31.2729L149.225 32.9812L150.421 33.3997L150.539 26.4817L149.031 25.954ZM147.462 29.6976L149.385 27.1391L149.291 30.3375L147.462 29.6976Z" fill="#7ABCF0"/>
<path class="spin-word" d="M159.782 29.8599C160.478 30.1928 161.188 29.9623 161.562 29.2857L160.825 28.933C160.653 29.2073 160.385 29.3847 160.079 29.238C159.789 29.0993 159.783 28.7912 159.897 28.4891L159.134 28.1245C158.843 28.8408 159.086 29.527 159.782 29.8599ZM154.302 34.9883L155.412 35.5193L160.296 32.3663L158.163 36.8351L159.274 37.3661L162.102 31.4381L160.992 30.907L156.12 34.0353L158.241 29.5913L157.131 29.0603L154.302 34.9883Z" fill="#7ABCF0"/>
<path class="spin-word" d="M167.451 35.5423L164.529 40.3235L165.579 40.9663L168.5 36.185L170.059 37.1396L170.562 36.3166L166.394 33.7647L165.892 34.5877L167.451 35.5423Z" fill="#7ABCF0"/>
<path class="spin-word" d="M174.498 38.9958L170.563 44.2537L173.973 46.8107L174.551 46.0386L172.118 44.2145L173.268 42.6776L175.121 44.0663L175.671 43.3309L173.819 41.9422L174.897 40.5009L177.205 42.2313L177.783 41.4591L174.498 38.9958Z" fill="#7ABCF0"/>
<path class="spin-word" d="M186.15 48.7991L181.43 53.3638L183.185 55.1815C184.187 56.2192 185.191 56.3731 186.069 55.524L186.095 55.4985C186.729 54.8856 186.778 54.2496 186.298 53.4744C186.98 53.8501 187.547 53.7105 188.023 53.2509L188.049 53.2253C188.914 52.389 188.728 51.4694 187.783 50.4912L186.15 48.7991ZM183.71 54.4692L182.886 53.6166L184.398 52.1546L185.164 52.9478C185.796 53.6021 185.813 54.0963 185.318 54.5752L185.292 54.6007C184.797 55.0795 184.278 55.0575 183.71 54.4692ZM185.694 52.3071L184.992 51.58L186.352 50.2649L187.041 50.9787C187.584 51.5406 187.641 51.9835 187.192 52.4176L187.166 52.4431C186.684 52.9092 186.256 52.8887 185.694 52.3071Z" fill="#7ABCF0"/>
<path class="spin-word" d="M192.771 55.9932L187.593 60.0301L188.344 60.9944L190.545 59.278L192.357 61.6054L190.156 63.3218L190.912 64.2933L196.09 60.2565L195.334 59.285L193.132 61.0013L191.32 58.6739L193.522 56.9576L192.771 55.9932Z" fill="#7ABCF0"/>
<path class="spin-word" d="M193.681 68.2404L194.323 69.2909L200.136 69.3092L195.915 71.8935L196.557 72.944L202.157 69.5158L201.514 68.4653L195.725 68.4326L199.922 65.8626L199.28 64.8122L193.681 68.2404Z" fill="#7ABCF0"/>
<path class="spin-word" d="M199.602 79.0125C200.243 80.3661 201.422 80.946 202.509 80.4306C203.247 80.0804 203.519 79.4326 203.266 78.5763C203.772 79.1502 204.423 79.238 205.053 78.9389C206.016 78.4825 206.289 77.3661 205.727 76.1786C205.14 74.9412 204.128 74.4553 202.858 74.8847L203.35 75.9227C204.048 75.7443 204.513 75.8898 204.828 76.5541C205.111 77.1521 204.978 77.622 204.447 77.8738C203.891 78.1374 203.446 78.0334 203.119 77.3442L202.808 76.6881L202.045 77.0501L202.364 77.7228C202.757 78.5532 202.633 78.9781 202.028 79.2653C201.406 79.5604 200.851 79.3555 200.493 78.5998C200.096 77.7611 200.44 77.2217 201.027 76.8313L200.527 75.7766C199.387 76.48 198.952 77.6423 199.602 79.0125Z" fill="#7ABCF0"/>
<path class="spin-word" d="M210.488 108.832C211.547 108.812 212.785 108.747 213.693 108.694L213.873 110.708L208.313 111.203L208.422 112.43L214.962 111.847L214.573 107.499C213.668 107.58 211.945 107.697 210.619 107.713C209.549 107.707 209.001 107.562 208.956 107.05C208.948 106.967 208.951 106.893 208.954 106.828L208.966 106.753L207.923 106.846C207.907 106.875 207.893 106.923 207.888 106.969C207.868 107.054 207.86 107.166 207.873 107.312C207.982 108.539 209.097 108.836 210.488 108.832Z" fill="#7ABCF0"/>
<path class="spin-word" d="M208.614 117.016L208.589 118.247L213.475 121.4L208.526 121.297L208.501 122.529L215.065 122.665L215.09 121.434L210.232 118.281L215.152 118.384L215.177 117.153L208.614 117.016Z" fill="#7ABCF0"/>
<path class="spin-word" d="M207.693 130.07C207.49 131.628 208.129 132.833 209.679 133.231L209.834 132.047C208.932 131.789 208.558 131.11 208.676 130.199C208.835 128.987 209.79 128.408 211.256 128.6L211.329 128.61C212.786 128.801 213.579 129.674 213.43 130.813C213.307 131.761 212.808 132.177 211.916 132.199L211.755 133.429C213.304 133.484 214.202 132.425 214.397 130.931C214.635 129.108 213.444 127.59 211.486 127.333L211.413 127.323C209.41 127.061 207.96 128.029 207.693 130.07Z" fill="#7ABCF0"/>
<path class="spin-word" d="M211.82 139.332L206.367 138.051L206.086 139.25L211.54 140.531L211.123 142.311L212.062 142.532L213.176 137.772L212.237 137.552L211.82 139.332Z" fill="#7ABCF0"/>
<path class="spin-word" d="M210.209 148.747L204.71 144.536L204.338 145.623L205.709 146.638L204.896 149.01L203.189 148.978L202.778 150.177L209.691 150.259L210.209 148.747ZM206.459 147.196L209.027 149.108L205.831 149.03L206.459 147.196Z" fill="#7ABCF0"/>
<path class="spin-word" d="M206.372 159.527C206.043 160.225 206.278 160.935 206.956 161.305L207.304 160.566C207.029 160.395 206.85 160.128 206.995 159.821C207.131 159.53 207.439 159.522 207.742 159.635L208.102 158.87C207.384 158.582 206.7 158.829 206.372 159.527ZM201.214 154.069L200.69 155.183L203.87 160.054L199.392 157.943L198.868 159.057L204.809 161.857L205.333 160.743L202.177 155.884L206.63 157.983L207.154 156.869L201.214 154.069Z" fill="#7ABCF0"/>
<path class="spin-word" d="M200.74 167.231L195.945 164.332L195.309 165.385L200.104 168.285L199.16 169.85L199.985 170.349L202.51 166.165L201.685 165.666L200.74 167.231Z" fill="#7ABCF0"/>
<path class="spin-word" d="M197.332 174.301L192.055 170.39L189.52 173.817L190.295 174.391L192.103 171.947L193.646 173.09L192.27 174.951L193.008 175.498L194.384 173.637L195.831 174.709L194.116 177.028L194.891 177.602L197.332 174.301Z" fill="#7ABCF0"/>
<path class="spin-word" d="M187.608 186.013L183.018 181.313L181.212 183.078C180.182 184.086 180.034 185.092 180.888 185.966L180.913 185.993C181.529 186.624 182.165 186.67 182.937 186.185C182.566 186.87 182.709 187.437 183.171 187.91L183.196 187.936C184.037 188.798 184.955 188.607 185.927 187.657L187.608 186.013ZM181.927 183.6L182.774 182.772L184.244 184.277L183.456 185.048C182.806 185.683 182.313 185.704 181.831 185.211L181.805 185.184C181.324 184.691 181.343 184.172 181.927 183.6ZM184.1 185.575L184.822 184.869L186.144 186.223L185.435 186.916C184.877 187.462 184.435 187.522 183.998 187.075L183.973 187.049C183.504 186.569 183.522 186.14 184.1 185.575Z" fill="#7ABCF0"/>
<path class="spin-word" d="M180.459 192.676L176.394 187.515L175.435 188.271L177.164 190.466L174.849 192.291L173.121 190.097L172.155 190.859L176.22 196.02L177.186 195.258L175.458 193.064L177.772 191.238L179.5 193.433L180.459 192.676Z" fill="#7ABCF0"/>
<path class="spin-word" d="M168.228 193.65L167.182 194.298L167.199 200.116L164.591 195.905L163.545 196.553L167.005 202.139L168.05 201.491L168.048 195.697L170.641 199.884L171.687 199.236L168.228 193.65Z" fill="#7ABCF0"/>
<path class="spin-word" d="M157.5 199.631C156.151 200.28 155.579 201.463 156.101 202.548C156.455 203.285 157.104 203.554 157.958 203.296C157.388 203.805 157.304 204.457 157.607 205.087C158.069 206.048 159.186 206.316 160.369 205.746C161.602 205.153 162.081 204.137 161.644 202.868L160.61 203.366C160.793 204.064 160.65 204.53 159.988 204.848C159.393 205.135 158.922 205.004 158.667 204.474C158.401 203.92 158.502 203.473 159.188 203.143L159.842 202.828L159.476 202.066L158.806 202.389C157.978 202.787 157.553 202.665 157.262 202.06C156.964 201.439 157.165 200.884 157.918 200.521C158.754 200.119 159.295 200.46 159.688 201.046L160.739 200.54C160.029 199.403 158.865 198.974 157.5 199.631Z" fill="#7ABCF0"/>
<g clip-path="url(#clip0)">
<path d="M125.606 115.237L126.539 114.979L124.39 107.216L129.99 105.665L131.518 111.185L135.594 110.056L135.894 111.14L136.827 110.882L136.268 108.863L132.192 109.992L130.664 104.473L123.198 106.54L125.606 115.237Z" fill="#7ABCF0"/>
<path d="M120.72 108.232L133.539 104.683C134.075 104.534 134.456 104.062 134.483 103.506L134.612 100.979C134.632 100.616 134.473 100.258 134.188 100.03C133.904 99.8016 133.525 99.7203 133.171 99.8184L119.443 103.62L120.72 108.232ZM133.43 100.753C133.504 100.732 133.558 100.763 133.58 100.787C133.605 100.805 133.648 100.854 133.643 100.925L133.514 103.452C133.507 103.59 133.414 103.706 133.279 103.744L121.392 107.035L120.633 104.291L133.428 100.748L133.43 100.753Z" fill="#7ABCF0"/>
<path d="M138.928 116.711L144.374 115.203L146.661 112.708C146.872 112.473 146.964 112.372 147.245 112.335L147.134 111.369C146.491 111.442 146.188 111.782 145.942 112.052L143.848 114.337L139.614 115.509C139.177 113.512 139.548 111.88 140.034 111.061C140.271 110.663 140.539 110.398 140.833 110.337L140.607 109.393C140.056 109.525 139.571 109.931 139.2 110.567C138.383 111.951 138.226 114.178 138.797 116.239L138.928 116.711Z" fill="#7ABCF0"/>
<path d="M132.739 125.73C141.017 123.116 146.267 119.756 150.489 117.052C153.577 115.075 156.016 113.514 158.73 112.762L158.472 111.828C155.613 112.619 152.994 114.295 149.967 116.236C145.796 118.905 140.606 122.229 132.448 124.805L132.739 125.73Z" fill="#7ABCF0"/>
<path d="M127.944 122.519C129.893 121.98 131.415 121.347 131.998 120.622C132.31 120.229 132.34 119.863 132.309 119.625L132.302 119.582L132.29 119.54C132.216 119.309 132.033 118.992 131.579 118.786C128.495 117.365 114.199 123.286 112.58 123.966L109.714 125.167L112.807 124.894C114.086 124.782 122.614 123.995 127.944 122.519ZM131.352 119.795C131.349 119.841 131.324 119.913 131.242 120.016C130.022 121.537 122.449 122.854 116.119 123.585C122.102 121.259 129.456 118.876 131.181 119.666C131.284 119.713 131.327 119.761 131.352 119.795Z" fill="#7ABCF0"/>
<path d="M91.7586 117.927C92.7006 117.666 93.4522 117.352 93.7422 116.985C93.9321 116.746 93.9485 116.515 93.927 116.365L93.92 116.322L93.9084 116.28C93.8623 116.132 93.7455 115.927 93.4653 115.804C92.1788 115.219 87.1524 117.32 85.6418 117.975L82.8051 119.208L85.8827 118.899C86.9824 118.791 89.7815 118.474 91.7586 117.927ZM92.548 116.661C92.0265 116.881 91.112 117.114 90.0115 117.329C91.0732 116.974 91.9838 116.727 92.548 116.661Z" fill="#7ABCF0"/>
<path d="M144.04 124.966C156.36 121.555 162.027 116.036 163.057 114.936C164.624 113.269 164.385 112.077 164.103 111.512C163.695 110.693 162.702 110.224 161.632 110.349L147.263 111.364L142.371 109.508C141.804 109.293 141.196 109.255 140.613 109.396C133.77 111.049 126.777 113.172 116.489 120.896L101.93 125.883L91.1045 111.466L86.3573 112.78L88.0764 117.502L88.9837 117.17L87.6234 113.436L90.7244 112.578L101.578 127.027L117.009 121.723C127.197 114.057 133.832 112.033 140.839 110.34C141.234 110.246 141.644 110.273 142.024 110.414L147.117 112.345L161.719 111.316C162.41 111.236 163.008 111.493 163.239 111.947C163.524 112.522 163.2 113.366 162.351 114.271C161.719 114.944 155.808 120.938 142.734 124.311C131.603 127.192 98.3625 131.55 94.4085 132.067L89.2376 117.87L88.3303 118.202L93.7676 133.125L94.1502 133.074C94.5142 133.029 131.135 128.313 142.974 125.251C143.335 125.156 143.69 125.063 144.04 124.966Z" fill="#7ABCF0"/>
<path d="M101.595 126.001L101.909 126.919L93.1062 129.934L92.7921 129.016L101.595 126.001Z" fill="#7ABCF0"/>
<path d="M120.716 107.096C120.838 107.062 120.916 107.036 120.928 107.027L120.592 106.119C120.328 106.217 119.656 106.368 119.116 106.196C119.491 105.77 120.148 105.553 120.425 105.501L120.242 104.55C120.171 104.565 118.476 104.899 117.997 106.214L117.876 106.539L118.147 106.756C119.021 107.465 120.231 107.23 120.716 107.096Z" fill="#7ABCF0"/>
<path d="M131.764 118.689L138.474 116.831L137.37 112.845L130.66 114.703L131.764 118.689ZM137.283 116.155L132.438 117.497L131.851 115.379L136.696 114.038L137.283 116.155Z" fill="#7ABCF0"/>
<path d="M119.43 105.676C119.43 105.57 119.423 105.452 119.412 105.324L120.194 105.047L118.046 98.9746L117.571 99.091C117.307 99.1693 117.152 99.4436 117.227 99.7147C118.01 102.688 118.463 104.867 118.468 105.686L119.43 105.676ZM117.292 99.7319L117.293 99.7366L117.292 99.7319Z" fill="#7ABCF0"/>
<path d="M121.455 113.081C121.716 113.008 121.875 112.748 121.82 112.476L120.63 106.622L119.817 106.786C119.759 106.667 119.705 106.561 119.651 106.475L118.818 106.967C119.234 107.672 119.966 109.769 120.824 112.727L120.953 113.174L121.439 113.08C121.45 113.082 121.45 113.082 121.455 113.081Z" fill="#7ABCF0"/>
<path d="M129.42 126.745C130.185 126.533 130.954 126.3 131.721 126.042L132.356 125.832L129.127 121.498L128.353 122.074L130.775 125.328C125.536 126.985 120.206 127.575 118.674 127.718L118.003 123.752L117.049 123.916L117.872 128.755L118.31 128.724C118.369 128.718 123.708 128.327 129.42 126.745Z" fill="#7ABCF0"/>
</g>
<defs>
<clipPath id="clip0">
<rect width="80.4324" height="32" fill="white" transform="matrix(-0.96374 0.266843 0.266843 0.96374 157.628 88)"/>
</clipPath>
</defs>
</svg>
