<svg width="88" height="92" viewBox="0 0 88 92" fill="none" xmlns="http://www.w3.org/2000/svg">
<g clip-path="url(#clip0)">
<path d="M38.64 91.14L38.11 90.61L64.62 64.1C71.63 57.09 75.49 47.77 75.49 37.85C75.49 27.93 71.63 18.61 64.62 11.6C50.15 -2.87001 26.6 -2.87001 12.12 11.6C5.11 18.62 1.25 27.94 1.25 37.85C1.25 47.77 5.11 57.09 12.12 64.1L11.59 64.63C4.44 57.48 0.5 47.97 0.5 37.85C0.5 27.73 4.44 18.22 11.59 11.07C26.36 -3.70001 50.38 -3.70001 65.15 11.07C72.3 18.22 76.24 27.73 76.24 37.85C76.24 47.97 72.3 57.47 65.15 64.63L38.64 91.14ZM38.37 49.94L31.66 39.27L29.41 44.84H32.08V49.61H15.36V44.84H18.5L29.38 17.84L38.36 33.57L47.34 17.84L58.22 44.84H61.36V49.61H44.65V44.84H47.32L45.07 39.27L38.37 49.94ZM45.4 48.86H60.63V45.59H57.74L47.24 19.55L38.37 35.08L29.5 19.55L19 45.59H16.11V48.86H31.34V45.59H28.31L31.52 37.63L38.37 48.54L45.22 37.63L48.43 45.59H45.4V48.86ZM83.21 12.14C80.67 12.14 79.38 10.27 79.38 6.56999C79.38 2.70999 80.66 0.749993 83.2 0.749993C85.75 0.749993 87.05 2.67999 87.05 6.49999C87.04 11.17 84.96 12.14 83.21 12.14ZM83.2 1.50999C81.14 1.50999 80.13 3.16999 80.13 6.57999C80.13 9.86999 81.11 11.4 83.21 11.4C85.25 11.4 86.29 9.74999 86.29 6.50999C86.29 3.13999 85.28 1.50999 83.2 1.50999ZM76.45 11.96H75.7V3.09999C75.3 3.45999 74.77 3.67999 74.19 3.67999H73.97V2.92999H74.19C75.02 2.92999 75.7 2.24999 75.7 1.41999V0.759993H76.45V11.96Z" fill="white" stroke="white" stroke-width="0.5"/>
</g>
<defs>
<clipPath id="clip0">
<rect width="86.54" height="91.14" fill="white" transform="translate(0.5)"/>
</clipPath>
</defs>
</svg>
