<svg width="73" height="72" viewBox="0 0 73 72" fill="none" xmlns="http://www.w3.org/2000/svg">
<path d="M66.15 71.93H6.78C3.32 71.93 0.5 69.12 0.5 65.65V6.28C0.5 2.82 3.32 0 6.78 0H66.16C69.62 0 72.44 2.82 72.44 6.28V65.66C72.43 69.12 69.62 71.93 66.15 71.93ZM6.78 0.75C3.73 0.75 1.25 3.23 1.25 6.28V65.66C1.25 68.71 3.73 71.19 6.78 71.19H66.16C69.21 71.19 71.69 68.71 71.69 65.66V6.28C71.69 3.23 69.21 0.75 66.16 0.75H6.78ZM28.98 59.9H21.25V12.03H39.58C47.71 12.03 54.33 18.65 54.33 26.78C54.33 34.91 47.71 41.53 39.58 41.53H28.98V59.9ZM22 59.15H28.23V40.78H39.58C47.3 40.78 53.58 34.5 53.58 26.78C53.58 19.06 47.3 12.78 39.58 12.78H22V59.15ZM39.58 34.54H28.23V19.02H39.58C43.86 19.02 47.34 22.5 47.34 26.78C47.34 31.06 43.86 34.54 39.58 34.54ZM28.98 33.79H39.58C43.45 33.79 46.59 30.64 46.59 26.78C46.59 22.92 43.44 19.77 39.58 19.77H28.98V33.79ZM63.05 17.08H62.49C60.43 17.08 58.75 15.4 58.75 13.33H59.5C59.5 14.98 60.84 16.33 62.49 16.33H63.05C64.41 16.33 65.52 15.22 65.52 13.85C65.52 12.53 64.45 11.46 63.14 11.46H61.78V10.71H62.91C64.04 10.71 64.96 9.79 64.96 8.66C64.96 7.49 64 6.53 62.83 6.53H62.34C60.92 6.53 59.76 7.69 59.76 9.11H59.01C59.01 7.27 60.51 5.78 62.34 5.78H62.83C64.42 5.78 65.71 7.07 65.71 8.66C65.71 9.64 65.21 10.5 64.45 11C65.52 11.5 66.26 12.59 66.26 13.85C66.27 15.63 64.82 17.08 63.05 17.08Z" fill="white" stroke="white" stroke-width="0.5"/>
</svg>
