<svg width="96" height="68" viewBox="0 0 96 68" fill="none" xmlns="http://www.w3.org/2000/svg">
<g clip-path="url(#clip0)">
<path d="M47.97 67.73C35.88 67.73 24.5 63.26 15.6 54.96C6 46 0.5 33.34 0.5 20.21C0.5 13.83 1.74 7.64003 4.2 1.80003C4.51 1.07003 5.09 0.500026 5.83 0.210026C6.57 -0.0899742 7.39 -0.0699742 8.12 0.260026L14.38 3.05003L14.08 3.73003L7.81 0.940026C7.27 0.700026 6.66 0.690026 6.1 0.910026C5.55 1.13003 5.12 1.55003 4.89 2.09003C2.47 7.83003 1.25 13.93 1.25 20.21C1.25 33.13 6.67 45.59 16.12 54.41C20.21 58.23 24.83 61.22 29.81 63.33L29.82 63.3C30.84 63.73 31.96 63.62 32.89 63.01C33.83 62.39 34.39 61.35 34.39 60.22V26.49C34.39 18.98 40.5 12.87 48.01 12.87C55.52 12.87 61.63 18.98 61.63 26.49V60.22C61.63 61.34 62.19 62.38 63.13 63.01C64.01 63.6 65.07 63.72 66.05 63.36C81.88 56.7 93.36 41.53 94.64 23.68C95.18 16.19 94 8.93003 91.13 2.10003C90.9 1.55003 90.47 1.13003 89.91 0.910026C89.36 0.690026 88.75 0.700026 88.2 0.950026L81.94 3.74003L81.64 3.06003L87.9 0.270026C88.63 -0.0599742 89.45 -0.0699742 90.19 0.220026C90.93 0.510026 91.52 1.08003 91.82 1.82003C94.74 8.75003 95.94 16.13 95.39 23.74C94.1 41.81 82.5 57.19 66.5 63.99C66.44 64.01 66.39 64.04 66.33 64.06C61.67 66.02 56.65 67.25 51.4 67.61C50.25 67.69 49.11 67.73 47.97 67.73ZM32.02 64.19C38.09 66.4 44.64 67.33 51.35 66.86C55.75 66.56 59.98 65.63 63.97 64.18C63.54 64.07 63.12 63.89 62.73 63.63C61.58 62.87 60.9 61.59 60.89 60.22V26.49C60.89 19.4 55.12 13.62 48.02 13.62C40.92 13.62 35.15 19.39 35.15 26.49V60.22C35.15 61.59 34.46 62.87 33.32 63.63C32.9 63.9 32.47 64.08 32.02 64.19ZM53.48 39.9H41.94V39.52C41.94 36.64 44.62 34.96 47.21 33.33C49.87 31.66 52.38 30.09 52.38 27.35C52.38 24.84 50.34 22.8 47.83 22.8C45.27 22.8 43.19 24.88 43.19 27.43H42.44C42.44 24.46 44.86 22.05 47.83 22.05C50.75 22.05 53.13 24.43 53.13 27.35C53.13 30.5 50.32 32.26 47.61 33.96C45.21 35.47 42.94 36.89 42.71 39.14H53.48V39.9Z" fill="white" stroke="white" stroke-width="0.5"/>
</g>
<defs>
<clipPath id="clip0">
<rect width="95.03" height="67.73" fill="white" transform="translate(0.5)"/>
</clipPath>
</defs>
</svg>
