<svg width="81" height="89" viewBox="0 0 81 89" fill="none" xmlns="http://www.w3.org/2000/svg">
<g>
<path d="M68.86 88.41H4.47C2.28 88.41 0.5 86.63 0.5 84.44V47.24C0.5 45.01 1.6 42.93 3.45 41.68L14.39 34.28L14.81 34.9L3.87 42.3C2.23 43.41 1.25 45.26 1.25 47.24V84.43C1.25 86.21 2.7 87.65 4.47 87.65H68.85C70.63 87.65 72.07 86.2 72.07 84.43V47.24C72.07 45.26 71.09 43.41 69.45 42.3L62.43 37.55L62.85 36.93L69.87 41.68C71.72 42.93 72.82 45.01 72.82 47.24V84.43C72.83 86.63 71.05 88.41 68.86 88.41ZM36.66 67.54C35.37 67.54 34.09 67.16 32.97 66.4L4.6 47.22L5.02 46.6L33.39 65.79C35.38 67.13 37.95 67.13 39.93 65.79L68.18 46.29L68.61 46.91L40.36 66.4C39.24 67.16 37.95 67.54 36.66 67.54ZM24.53 46.63C23.66 46.63 22.79 46.4 22.02 45.95C20.85 45.28 20.02 44.19 19.67 42.89L13.37 19.38C13.02 18.08 13.2 16.72 13.87 15.55C14.54 14.38 15.63 13.55 16.93 13.2L48.44 4.76003C51.12 4.04003 53.9 5.64003 54.62 8.33003L60.92 31.84C61.64 34.53 60.04 37.3 57.35 38.02L25.84 46.46C25.41 46.57 24.97 46.63 24.53 46.63ZM49.75 5.33003C49.38 5.33003 49.01 5.38003 48.64 5.48003L17.13 13.92C16.02 14.22 15.1 14.93 14.52 15.92C13.95 16.91 13.79 18.07 14.09 19.18L20.39 42.69C20.69 43.8 21.4 44.72 22.39 45.3C23.38 45.87 24.54 46.03 25.65 45.73L57.16 37.29C59.45 36.68 60.81 34.32 60.2 32.03L53.9 8.51003C53.38 6.59003 51.64 5.33003 49.75 5.33003ZM78.75 30.88C78.54 30.88 78.33 30.84 78.13 30.76L62.21 24.46L62.49 23.76L78.41 30.06C78.75 30.19 79.11 30.13 79.37 29.89C79.64 29.65 79.75 29.3 79.65 28.95L72.28 1.44003C72.19 1.09003 71.92 0.840029 71.57 0.770029C71.22 0.700029 70.87 0.820029 70.65 1.10003L60.01 14.52L59.42 14.05L70.06 0.640029C70.46 0.140029 71.09 -0.0899707 71.72 0.0400293C72.35 0.170029 72.84 0.630029 73.01 1.25003L80.38 28.76C80.55 29.38 80.35 30.03 79.87 30.45C79.56 30.73 79.16 30.88 78.75 30.88Z" fill="white" stroke="white" stroke-width="0.5"/>
</g>
</svg>
